<svg version="1.2" xmlns="http://www.w3.org/2000/svg" viewBox="0 0 1070 1450" width="738" height="1000"><style>tspan{white-space:pre}.a{font-size: 26px;fill: #344d97;font-weight: 400;font-family: "DejaVuSans", "DejaVu Sans"}.b{fill-opacity:.4;fill:none;stroke:#808080;stroke-linecap:round;stroke-linejoin:round;stroke-width:3.6;stroke-dasharray:0,7.10492140551749}.c{fill:none;stroke:#344d97;stroke-miterlimit:100;stroke-width:3}.d{fill-opacity:.4;fill:none;stroke:#344d97;stroke-miterlimit:100;stroke-width:3;stroke-dasharray:12,6}.e{fill:#fff}.f{fill:#344d97}</style><text style="transform:matrix(1.163,0,0,1.163,100.163,255.088)"><tspan x="0" y="0" class="a">N</tspan><tspan  y="0" class="a">e</tspan><tspan  y="0" class="a">c</tspan><tspan  y="0" class="a">k</tspan><tspan  y="0" class="a">
</tspan><tspan x="0" y="60.2" class="a">Shoulder</tspan><tspan  y="60.2" class="a">
</tspan><tspan x="0" y="120.4" class="a">C</tspan><tspan  y="120.4" class="a">h</tspan><tspan  y="120.4" class="a">e</tspan><tspan  y="120.4" class="a">s</tspan><tspan  y="120.4" class="a">t</tspan><tspan  y="120.4" class="a">
</tspan><tspan x="0" y="180.6" class="a">B</tspan><tspan  y="180.6" class="a">i</tspan><tspan  y="180.6" class="a">c</tspan><tspan  y="180.6" class="a">e</tspan><tspan  y="180.6" class="a">p</tspan><tspan  y="180.6" class="a">s</tspan><tspan  y="180.6" class="a">
</tspan><tspan x="0" y="240.9" class="a">F</tspan><tspan  y="240.9" class="a">o</tspan><tspan  y="240.9" class="a">r</tspan><tspan  y="240.9" class="a">e</tspan><tspan  y="240.9" class="a">a</tspan><tspan  y="240.9" class="a">r</tspan><tspan  y="240.9" class="a">m</tspan><tspan  y="240.9" class="a">s</tspan><tspan  y="240.9" class="a">
</tspan><tspan x="0" y="301.1" class="a">W</tspan><tspan  y="301.1" class="a">a</tspan><tspan  y="301.1" class="a">i</tspan><tspan  y="301.1" class="a">s</tspan><tspan  y="301.1" class="a">t</tspan><tspan  y="301.1" class="a">
</tspan><tspan x="0" y="361.3" class="a">H</tspan><tspan  y="361.3" class="a">i</tspan><tspan  y="361.3" class="a">p</tspan><tspan  y="361.3" class="a">s</tspan><tspan  y="361.3" class="a">
</tspan><tspan x="0" y="481.7" class="a">T</tspan><tspan  y="481.7" class="a">h</tspan><tspan  y="481.7" class="a">i</tspan><tspan  y="481.7" class="a">g</tspan><tspan  y="481.7" class="a">h</tspan><tspan  y="481.7" class="a">s</tspan><tspan  y="481.7" class="a">
</tspan><tspan x="0" y="722.6" class="a">C</tspan><tspan  y="722.6" class="a">a</tspan><tspan  y="722.6" class="a">l</tspan><tspan  y="722.6" class="a">v</tspan><tspan  y="722.6" class="a">e</tspan><tspan  y="722.6" class="a">s</tspan><tspan  y="722.6" class="a">
</tspan></text><path fill-rule="evenodd" class="b" d="m547.3 250"/><path fill-rule="evenodd" class="b" d="m199 245c0 0 366.2 0 364.1 0"/><path fill-rule="evenodd" class="b" d="m432.3 390"/><path fill-rule="evenodd" class="b" d="m199 385c0 0 245.4 0 244 0"/><path fill-rule="evenodd" class="b" d="m485.9 670"/><path fill-rule="evenodd" class="b" d="m180 665c0 0 321.9 0 320 0"/><path fill-rule="evenodd" class="b" d="m389.8 460"/><path fill-rule="evenodd" class="b" d="m211 455c0 0 188.1 0 187 0l25-17"/><path fill-rule="evenodd" class="b" d="m389.8 530"/><path fill-rule="evenodd" class="b" d="m247.3 525c0 0 105.6 0 125 0l23.9 17.9"/><path fill-rule="evenodd" class="b" d="m885.7 530"/><path fill-rule="evenodd" class="b" d="m921.1 525c0 0 1.4 0-18 0l-23.8 17.9"/><path fill-rule="evenodd" class="b" d="m508.6 600"/><path fill-rule="evenodd" class="b" d="m197.3 595c0 0 274.5 0 293.8 0l32.7-22.3"/><path fill-rule="evenodd" class="b" d="m461.6 810"/><path fill-rule="evenodd" class="b" d="m213.6 805c0 0 161.8 0 181.2 0l88.6-26.3"/><path fill-rule="evenodd" class="b" d="m461.6 1090"/><path fill-rule="evenodd" class="b" d="m213.6 1085c0 0 201.8 0 221.2 0l40.1 22"/><path fill-rule="evenodd" class="b" d="m885.7 458"/><path fill-rule="evenodd" class="b" d="m921.3 453c0 0-45 0-43.9 0l-25-17"/><path fill-rule="evenodd" class="b" d="m813.8 808"/><path fill-rule="evenodd" class="b" d="m921.1 803c0 0-21.1 0-40.5 0l-88.6-26.3"/><path fill-rule="evenodd" class="b" d="m813.8 1088"/><path fill-rule="evenodd" class="b" d="m921.2 1083c0 0-61.2 0-80.6 0l-40 22"/><path fill-rule="evenodd" class="b" d="m496 395l-53.1-9.9"/><path fill-rule="evenodd" class="b" d="m432.1 320.9"/><path fill-rule="evenodd" class="b" d="m254 318c0 0 189.3 0 188 0"/><path fill-rule="evenodd" class="c" d="m678.6 1118c0.4 5 25.5 7 56.2 4.5 30.6-2.5 55.1-8.5 54.7-13.6"/><path fill-rule="evenodd" class="d" d="m789.5 1108.9c-0.4-5-25.6-7-56.2-4.5-30.7 2.5-55.1 8.6-54.7 13.6"/><path class="e" d="m718.5 1123c-0.5 0.6-0.4 1.5 0.4 1.8l11.6 5.9c0.8 0.4 1.9 0.2 2.4-0.5 0.6-0.6 0.4-1.4-0.3-1.8l-10.3-5.2 7.6-8.6c0.6-0.6 0.4-1.4-0.3-1.8-0.8-0.4-1.9-0.2-2.4 0.4 0 0-8.7 9.8-8.7 9.8z"/><path class="f" d="m722.3 1124c-0.4 0.4-0.3 1 0.3 1.3l8.4 4.3c0.6 0.2 1.4 0.1 1.8-0.4 0.4-0.4 0.3-1-0.3-1.3l-7.5-3.8 5.6-6.2c0.4-0.5 0.3-1.1-0.3-1.4-0.5-0.2-1.3-0.1-1.7 0.4 0 0-6.3 7.1-6.3 7.1z"/><path fill-rule="evenodd" class="c" d="m589.5 1118c-0.4 5-25.6 7-56.2 4.5-30.7-2.5-55.1-8.5-54.7-13.6"/><path fill-rule="evenodd" class="d" d="m478.6 1108.9c0.4-5 25.5-7 56.2-4.5 30.6 2.5 55.1 8.6 54.7 13.6"/><path class="e" d="m549.6 1123c0.5 0.6 0.4 1.5-0.4 1.8l-11.6 5.9c-0.8 0.4-1.9 0.2-2.4-0.5-0.6-0.6-0.4-1.4 0.3-1.8l10.3-5.2-7.6-8.6c-0.6-0.6-0.4-1.4 0.3-1.8 0.8-0.4 1.9-0.2 2.4 0.4 0 0 8.7 9.8 8.7 9.8z"/><path class="f" d="m545.8 1124c0.4 0.4 0.3 1-0.3 1.3l-8.5 4.3c-0.5 0.2-1.3 0.1-1.7-0.4-0.4-0.4-0.3-1 0.3-1.3l7.4-3.8-5.5-6.2c-0.4-0.5-0.3-1.1 0.3-1.4 0.5-0.2 1.3-0.1 1.7 0.4 0 0 6.3 7.1 6.3 7.1z"/><path fill-rule="evenodd" class="c" d="m632.5 822c-2 6.7-37 2.1-78.1-10.4-41.2-12.5-72.8-28.1-70.7-34.8"/><path fill-rule="evenodd" class="d" d="m483.7 776.8c2-6.8 36.9-2.1 78.1 10.4 41.2 12.5 72.8 28.1 70.7 34.8"/><path class="e" d="m557.9 811.9c0.3 0.6 0 1.3-0.7 1.5l-11.1 2.8c-0.7 0.2-1.6-0.1-1.9-0.8-0.4-0.6-0.1-1.3 0.6-1.5l9.8-2.5-4.9-8.8c-0.4-0.7-0.1-1.4 0.6-1.6 0.7-0.1 1.6 0.2 2 0.9 0 0 5.6 10 5.6 10z"/><path class="f" d="m554.4 812c0.3 0.5 0.1 1-0.4 1.1l-8.1 2.1c-0.5 0.1-1.2-0.2-1.4-0.6-0.3-0.5-0.1-1 0.4-1.1l7.1-1.9-3.5-6.4c-0.3-0.4-0.1-0.9 0.4-1.1 0.6-0.1 1.2 0.2 1.5 0.7 0 0 4 7.2 4 7.2z"/><path fill-rule="evenodd" class="c" d="m638.7 822c2 6.7 36.9 2.1 78.1-10.4 41.2-12.5 72.8-28.1 70.7-34.8"/><path fill-rule="evenodd" class="d" d="m787.5 776.8c-2-6.8-37-2.1-78.1 10.4-41.2 12.5-72.8 28.1-70.7 34.8"/><path class="e" d="m713.3 811.9c-0.3 0.6 0 1.3 0.7 1.5l11.1 2.8c0.7 0.2 1.6-0.1 1.9-0.8 0.4-0.6 0.1-1.3-0.6-1.5l-9.8-2.5 4.9-8.8c0.4-0.7 0.1-1.4-0.6-1.6-0.7-0.1-1.6 0.2-2 0.9 0 0-5.6 10-5.6 10z"/><path class="f" d="m716.8 812c-0.3 0.5-0.1 1 0.4 1.1l8.1 2.1c0.5 0.1 1.1-0.2 1.4-0.6 0.3-0.5 0.1-1-0.5-1.1l-7.1-1.9 3.6-6.4c0.3-0.4 0.1-0.9-0.4-1.1-0.6-0.1-1.2 0.2-1.5 0.7 0 0-4 7.2-4 7.2z"/><path fill-rule="evenodd" class="c" d="m749.1 567c0.1 10.1-49.9 18.6-111.8 19-61.9 0.4-112-7.5-112.1-17.6"/><path fill-rule="evenodd" class="d" d="m525.2 568.4c0-10.2 50-18.7 111.9-19.1 61.8-0.3 111.9 7.5 112 17.7"/><path class="e" d="m643.4 585.3c0.5 0.5 0.4 1.3-0.2 1.7l-9.7 6c-0.6 0.4-1.6 0.3-2.1-0.3-0.6-0.5-0.5-1.2 0.1-1.6l8.6-5.3-7.3-6.9c-0.5-0.5-0.5-1.3 0.2-1.7 0.6-0.4 1.5-0.3 2.1 0.3 0 0 8.3 7.8 8.3 7.8z"/><path class="f" d="m640.1 585.5c0.4 0.3 0.4 0.9-0.1 1.2l-7 4.3c-0.5 0.3-1.2 0.2-1.6-0.1-0.4-0.4-0.3-0.9 0.1-1.2l6.3-3.9-5.3-5c-0.4-0.4-0.4-0.9 0.1-1.2 0.4-0.3 1.1-0.2 1.5 0.2 0 0 6 5.7 6 5.7z"/><path fill-rule="evenodd" class="c" d="m764.9 658.9c0.1 11.7-57.4 21.4-128.6 21.9-71.2 0.4-128.8-8.7-128.9-20.3"/><path fill-rule="evenodd" class="d" d="m507.4 660.5c-0.1-11.7 57.4-21.5 128.6-21.9 71.2-0.5 128.8 8.6 128.9 20.3"/><path class="e" d="m642.4 680.3c0.5 0.5 0.4 1.3-0.2 1.7l-9.7 6c-0.6 0.4-1.6 0.3-2.1-0.3-0.6-0.5-0.5-1.2 0.1-1.6l8.6-5.3-7.3-6.9c-0.5-0.5-0.5-1.3 0.2-1.7 0.6-0.4 1.5-0.3 2.1 0.3 0 0 8.3 7.8 8.3 7.8z"/><path class="f" d="m639.1 680.5c0.4 0.3 0.4 0.9-0.1 1.2l-7 4.3c-0.5 0.3-1.2 0.2-1.6-0.1-0.4-0.4-0.3-0.9 0.1-1.2l6.3-3.9-5.3-5c-0.4-0.4-0.4-0.9 0.1-1.2 0.4-0.3 1.1-0.2 1.5 0.2 0 0 6 5.7 6 5.7z"/><path fill-rule="evenodd" class="c" d="m783.6 574c1.3 4.2 23.2 1.3 49-6.6 25.9-7.8 45.7-17.6 44.4-21.8"/><path fill-rule="evenodd" class="d" d="m877 545.6c-1.3-4.2-23.2-1.3-49 6.5-25.8 7.9-45.7 17.7-44.4 21.9"/><path class="e" d="m818.8 570.9c-0.4 0.6-0.1 1.3 0.6 1.5l11.1 2.8c0.7 0.2 1.6-0.1 2-0.8 0.4-0.6 0.1-1.3-0.7-1.5l-9.7-2.5 4.9-8.8c0.4-0.7 0.1-1.4-0.7-1.6-0.7-0.1-1.6 0.2-1.9 0.9 0 0-5.6 10-5.6 10z"/><path class="f" d="m822.2 571c-0.2 0.5 0 1 0.5 1.1l8 2.1c0.6 0.1 1.2-0.2 1.5-0.6 0.2-0.5 0-1-0.5-1.1l-7.1-1.9 3.6-6.4c0.2-0.4 0-0.9-0.5-1.1-0.5-0.1-1.2 0.2-1.4 0.7 0 0-4.1 7.2-4.1 7.2z"/><path fill-rule="evenodd" class="c" d="m492 574c-1.3 4.2-23.2 1.3-49-6.6-25.8-7.8-45.7-17.6-44.4-21.8"/><path fill-rule="evenodd" class="d" d="m398.6 545.6c1.3-4.2 23.2-1.3 49 6.5 25.9 7.9 45.7 17.7 44.4 21.9"/><path class="e" d="m456.9 570.9c0.3 0.6 0 1.3-0.7 1.5l-11.1 2.8c-0.7 0.2-1.6-0.1-1.9-0.8-0.4-0.6-0.1-1.3 0.6-1.5l9.8-2.5-4.9-8.8c-0.4-0.7-0.1-1.4 0.6-1.6 0.7-0.1 1.6 0.2 2 0.9 0 0 5.6 10 5.6 10z"/><path class="f" d="m453.4 571c0.3 0.5 0.1 1-0.4 1.1l-8.1 2.1c-0.5 0.1-1.2-0.2-1.4-0.6-0.3-0.5-0.1-1 0.4-1.1l7.1-1.9-3.5-6.4c-0.3-0.4-0.1-0.9 0.4-1.1 0.6-0.1 1.2 0.2 1.5 0.7 0 0 4 7.2 4 7.2z"/><path fill-rule="evenodd" class="c" d="m758.6 463c1.3 4.2 23.2 1.3 49-6.6 25.9-7.8 45.7-17.6 44.4-21.8"/><path fill-rule="evenodd" class="d" d="m852 434.6c-1.3-4.2-23.2-1.3-49 6.5-25.8 7.9-45.7 17.7-44.4 21.9"/><path class="e" d="m793.8 459.9c-0.4 0.6-0.1 1.3 0.6 1.5l11.1 2.8c0.7 0.2 1.6-0.1 2-0.8 0.4-0.6 0.1-1.3-0.7-1.5l-9.7-2.5 4.9-8.8c0.4-0.7 0.1-1.4-0.7-1.6-0.7-0.1-1.6 0.2-1.9 0.9 0 0-5.6 10-5.6 10z"/><path class="f" d="m797.2 460c-0.2 0.5 0 1 0.5 1.1l8 2.1c0.6 0.1 1.2-0.2 1.5-0.6 0.2-0.5 0-1-0.5-1.1l-7.1-1.9 3.6-6.4c0.2-0.4 0-0.9-0.5-1.1-0.5-0.1-1.2 0.2-1.4 0.7 0 0-4.1 7.2-4.1 7.2z"/><path fill-rule="evenodd" class="c" d="m517 463c-1.3 4.2-23.2 1.3-49-6.6-25.8-7.8-45.7-17.6-44.4-21.8"/><path fill-rule="evenodd" class="d" d="m423.6 434.6c1.3-4.2 23.2-1.3 49 6.5 25.9 7.9 45.7 17.7 44.4 21.9"/><path class="e" d="m481.9 459.9c0.3 0.6 0 1.3-0.7 1.5l-11.1 2.8c-0.7 0.2-1.6-0.1-1.9-0.8-0.4-0.6-0.1-1.3 0.6-1.5l9.8-2.5-4.9-8.8c-0.4-0.7-0.1-1.4 0.6-1.6 0.7-0.1 1.6 0.2 2 0.9 0 0 5.6 10 5.6 10z"/><path class="f" d="m478.4 460c0.3 0.5 0.1 1-0.4 1.1l-8.1 2.1c-0.5 0.1-1.2-0.2-1.4-0.6-0.3-0.5-0.1-1 0.4-1.1l7.1-1.9-3.5-6.4c-0.3-0.4-0.1-0.9 0.4-1.1 0.6-0.1 1.2 0.2 1.5 0.7 0 0 4 7.2 4 7.2z"/><path fill-rule="evenodd" class="c" d="m771.7 393.8c0.1 12.4-60.9 22.8-136.4 23.3-75.5 0.4-136.6-9.2-136.7-21.6"/><path fill-rule="evenodd" class="d" d="m498.6 395.5c-0.1-12.4 60.9-22.7 136.4-23.2 75.6-0.5 136.7 9.2 136.7 21.5"/><path class="e" d="m643.4 416.3c0.5 0.5 0.4 1.3-0.2 1.7l-9.7 6c-0.6 0.4-1.6 0.3-2.1-0.3-0.6-0.5-0.5-1.2 0.1-1.6l8.6-5.3-7.3-6.9c-0.5-0.5-0.5-1.3 0.2-1.7 0.6-0.4 1.5-0.3 2.1 0.3 0 0 8.3 7.8 8.3 7.8z"/><path class="f" d="m640.1 416.5c0.4 0.3 0.4 0.9-0.1 1.2l-7 4.3c-0.5 0.3-1.2 0.2-1.6-0.1-0.4-0.4-0.3-0.9 0.1-1.2l6.3-3.9-5.3-5c-0.4-0.4-0.4-0.9 0.1-1.2 0.4-0.3 1.1-0.2 1.5 0.2 0 0 6 5.7 6 5.7z"/><path fill-rule="evenodd" class="c" d="m832.7 326.8c0.1 17.7-87.1 32.6-195.2 33.3-108 0.6-195.4-13.2-195.5-30.9"/><path fill-rule="evenodd" class="d" d="m442 329.2c-0.1-17.7 87.1-32.5 195.2-33.2 108-0.6 195.4 13.1 195.5 30.8"/><path class="e" d="m643.4 359.3c0.5 0.5 0.4 1.3-0.2 1.7l-9.7 6c-0.6 0.4-1.6 0.3-2.1-0.3-0.6-0.5-0.5-1.2 0.1-1.6l8.6-5.3-7.3-6.9c-0.5-0.5-0.5-1.3 0.2-1.7 0.6-0.4 1.5-0.3 2.1 0.3 0 0 8.3 7.8 8.3 7.8z"/><path class="f" d="m640.1 359.5c0.4 0.3 0.4 0.9-0.1 1.2l-7 4.3c-0.5 0.3-1.2 0.2-1.6-0.1-0.4-0.4-0.3-0.9 0.1-1.2l6.3-3.9-5.3-5c-0.4-0.4-0.4-0.9 0.1-1.2 0.4-0.3 1.1-0.2 1.5 0.2 0 0 6 5.7 6 5.7z"/><path fill-rule="evenodd" class="c" d="m688.3 243.1c0 5-24.8 9.3-55.6 9.5-30.7 0.1-55.6-3.8-55.6-8.8"/><path fill-rule="evenodd" class="d" d="m577.1 243.8c-0.1-5.1 24.8-9.3 55.5-9.5 30.8-0.2 55.7 3.8 55.7 8.8"/><path class="e" d="m649 251.6c0.6 0.6 0.5 1.4-0.2 1.9l-11.1 6.8c-0.7 0.5-1.8 0.4-2.4-0.2-0.6-0.6-0.6-1.5 0.2-1.9l9.8-6-8.4-8c-0.6-0.5-0.5-1.4 0.2-1.8 0.7-0.5 1.8-0.4 2.4 0.2 0 0 9.5 9 9.5 9z"/><path class="f" d="m645.3 252.9c0.4 0.4 0.4 1-0.1 1.4l-8.1 4.9c-0.5 0.4-1.3 0.3-1.8-0.2-0.4-0.4-0.4-1 0.2-1.3l7.1-4.4-6.1-5.7c-0.4-0.5-0.4-1.1 0.2-1.4 0.5-0.3 1.3-0.2 1.7 0.2 0 0 6.9 6.5 6.9 6.5z"/></svg>