<?xml version="1.0" encoding="UTF-8" standalone="no"?>
<svg
   width="24"
   height="24"
   viewBox="0 0 24 24"
   fill="#ffffff"
   version="1.1"
   id="svg1"
   xml:space="preserve"
   xmlns:inkscape="http://www.inkscape.org/namespaces/inkscape"
   xmlns:sodipodi="http://sodipodi.sourceforge.net/DTD/sodipodi-0.dtd"
   xmlns="http://www.w3.org/2000/svg"
   xmlns:svg="http://www.w3.org/2000/svg"><defs
     id="defs1" /><g
     id="path1"
     style="opacity:1;fill:#ffffff;fill-opacity:1"><path
       style="baseline-shift:baseline;display:inline;overflow:visible;vector-effect:none;fill:#ffffff;stroke-linejoin:round;enable-background:accumulate;stop-color:#000000;stop-opacity:1;fill-opacity:1.0;opacity:1.0"
       d="M 16.8362,10.6207 C 15.6162,9.92354 15.0062,9.57497 14.7366,9.01139 14.6659,8.86356 14.6137,8.70759 14.581,8.54701 14.4565,7.93481 14.7333,7.28905 15.2868,5.99751 L 15.9547,4.439 C 16.057,4.20034 16.1081,4.08101 16.1274,4.0056 16.3098,3.28975 15.6798,2.63 14.9563,2.77925 14.8801,2.79497 14.7585,2.84055 14.5154,2.93173 L 14.2837,3.01862 C 13.8697,3.17385 13.6628,3.25147 13.4593,3.33202 10.548,4.48474 7.89036,6.19602 5.63624,8.3694 5.47873,8.52127 5.32243,8.67757 5.00982,8.99018 4.86728,9.13272 4.79602,9.20398 4.745,9.26371 3.97156,10.1692 4.15591,11.5459 5.14036,12.216 c 0.06493,0.0442 0.15244,0.0942 0.32746,0.1942 l 1.69597,0.9691 c 1.22001,0.6972 1.83001,1.0457 2.09957,1.6093 0.0707,0.1478 0.12297,0.3038 0.15563,0.4644 0.1245,0.6122 -0.15226,1.258 -0.70577,2.5495 L 8.04529,19.561 C 7.943,19.7997 7.89186,19.919 7.87264,19.9944 7.69019,20.7102 8.3202,21.37 9.0437,21.2208 9.11992,21.205 9.24148,21.1594 9.4846,21.0683 l 0.23173,-0.0869 c 0.41397,-0.1553 0.62087,-0.2329 0.82437,-0.3134 2.9113,-1.1527 5.5689,-2.864 7.8231,-5.0374 0.1575,-0.1519 0.3138,-0.3082 0.6264,-0.6208 0.1425,-0.1425 0.2138,-0.2138 0.2648,-0.2735 0.7734,-0.9055 0.5891,-2.2822 -0.3954,-2.9523 -0.0649,-0.0442 -0.1524,-0.0942 -0.3274,-0.1942 z"
       id="path2" /><path
       style="baseline-shift:baseline;display:inline;overflow:visible;vector-effect:none;fill:#ffffff;stroke-linejoin:round;enable-background:accumulate;stop-color:#000000;stop-opacity:1;fill-opacity:1.0;opacity:1"
       d="m 14.753906,1.8007812 c -0.244634,0.050468 -0.346679,0.1041083 -0.589843,0.1953125 l -0.232422,0.085938 C 13.517584,2.2372823 13.306557,2.3173367 13.091797,2.4023438 10.059205,3.6030889 7.2894402,5.3864606 4.9414062,7.6503906 4.7750592,7.8107812 4.6153444,7.9705931 4.3027344,8.2832031 c -0.14254,0.14254 -0.2237872,0.2193608 -0.3183594,0.3300782 -1.1495179,1.345776 -0.8693667,3.4337667 0.59375,4.4296877 0.1204405,0.08199 0.2195113,0.136328 0.3945312,0.236328 l 1.6953125,0.96875 c 1.2200448,0.69722 1.6079363,0.993271 1.6933594,1.171875 0.035294,0.07378 0.061786,0.152078 0.078125,0.232422 0.039455,0.194008 -0.091024,0.665538 -0.6445312,1.957031 l -0.6679688,1.558594 c -0.1022747,0.238664 -0.1609254,0.337908 -0.2226562,0.580078 -0.3548623,1.392219 0.9346798,2.741347 2.3417969,2.451172 0.2437483,-0.05053 0.3468363,-0.104255 0.5898437,-0.195313 l 0.2324215,-0.08594 c 0.413946,-0.155291 0.625162,-0.235389 0.839844,-0.320313 3.032603,-1.200728 5.80229,-2.984112 8.150391,-5.248047 0.166272,-0.16036 0.326072,-0.320212 0.638672,-0.632812 0.1425,-0.1425 0.22379,-0.219377 0.318359,-0.330078 1.149446,-1.345776 0.869431,-3.433774 -0.59375,-4.429688 -0.120532,-0.08209 -0.217578,-0.136328 -0.392578,-0.236328 L 17.332031,9.7519531 C 16.112028,9.0547911 15.72414,8.7587437 15.638672,8.5800781 15.603431,8.5063921 15.576989,8.4283995 15.560547,8.3476563 15.521099,8.1536802 15.651569,7.6821868 16.205078,6.390625 l 0.667969,-1.5585938 c 0.102346,-0.2387684 0.161061,-0.3374587 0.222656,-0.578125 a 1.0001,1.0001 0 0 0 0,-0.00195 C 17.450438,2.8597568 16.160988,1.510516 14.753906,1.8007812 Z m 0.404297,1.9570313 c 0.02299,-0.089846 -0.02079,0.048558 -0.123047,0.2871094 l -0.667968,1.5585937 c -0.553491,1.2915183 -0.975178,2.1121542 -0.765625,3.1425782 0.04896,0.2404167 0.126262,0.4752916 0.232421,0.6972656 0.453732,0.9484946 1.285863,1.3477636 2.50586,2.0449216 l 1.695312,0.970703 c 0.175,0.1 0.252451,0.146032 0.261719,0.152344 0.505819,0.344286 0.59462,1.009386 0.197266,1.47461 -0.0074,0.0087 -0.06844,0.0743 -0.210938,0.216796 -0.3126,0.3126 -0.464553,0.463983 -0.613281,0.607422 -2.1603,2.082866 -4.70805,3.723454 -7.498047,4.828125 -0.1919515,0.07591 -0.3935209,0.15166 -0.8066406,0.306641 l -0.2324219,0.08789 c -0.2418094,0.09061 -0.3790907,0.127536 -0.2910156,0.109375 -0.023291,0.09137 0.020742,-0.04837 0.1230469,-0.287109 L 9.6328125,18.396484 C 10.186325,17.104978 10.607983,16.284298 10.398438,15.253906 10.349456,15.01305 10.272121,14.778457 10.166016,14.556641 9.7123188,13.608045 8.8801315,13.208899 7.6601562,12.511719 L 5.9648437,11.541016 C 5.7898238,11.441016 5.7125445,11.395084 5.703125,11.388672 5.1973417,11.044393 5.1084973,10.379266 5.5058594,9.9140625 c 0.00747,-0.00874 0.068397,-0.074257 0.2109375,-0.2167969 0.31261,-0.31261 0.4646083,-0.4640725 0.6132812,-0.6074218 2.1602061,-2.08283 4.7080389,-3.7234302 7.4980469,-4.8281251 0.19224,-0.076093 0.392697,-0.1514316 0.806641,-0.3066406 l 0.232422,-0.087891 c 0.243035,-0.091156 0.383249,-0.1284028 0.291015,-0.109375 z"
       id="path3" /></g></svg>
