<?xml version="1.0" encoding="UTF-8" standalone="no"?>
<!-- Uploaded to: SVG Repo, www.svgrepo.com, Generator: SVG Repo Mixer Tools -->

<svg
   fill="#000000"
   width="485"
   height="800"
   viewBox="0 0 30.3125 50"
   version="1.1"
   id="svg1"
   xmlns="http://www.w3.org/2000/svg"
   xmlns:svg="http://www.w3.org/2000/svg">
  
  <path
     id="path1"
     style="fill:#ffffff;fill-opacity:1;stroke:none;stroke-width:0.1942;stroke-dasharray:none;stroke-opacity:1"
     d="M 3.866e-5,-0.06622035 V 50.051316 H 30.418633 V -0.06622035 Z M 12.476581,0.7842049 h 5.831278 c 1.605879,0 2.915639,1.308341 2.915639,2.912372 v 1.941413 c 0,1.126234 -0.816186,1.9415391 -1.943717,1.9415391 0,0.6218939 0.352957,1.0769466 0.941399,1.1831235 4.605035,1.0086818 7.805517,4.9448285 7.805517,9.5862795 v 1.971831 c 0,1.266539 -0.812515,2.358708 -1.943843,2.760663 v 0.03029 H 6.6453038 l 1.3152202,0.504423 18.140184,0.375545 -0.01784,10.769143 H 6.6453038 l 1.2573231,0.529583 16.3987761,0.368177 1.842409,0.07177 c 1.131329,0.401955 1.882885,2.526722 1.882885,3.793262 v 4.944911 c 0,2.677177 -2.179223,4.853785 -4.859483,4.853785 H 7.6172261 c -2.6802585,0 -4.8594827,-2.176608 -4.8594827,-4.853785 v -4.944911 c 0,-1.26654 0.8125166,-2.358581 1.9438434,-2.760538 V 23.081426 C 3.57026,22.679471 2.7577434,21.587302 2.7577434,20.320763 v -1.971831 c 0,-4.641451 3.2042533,-8.5851827 7.7751206,-9.5862795 0.62261,-0.1137606 0.971797,-0.5612296 0.971797,-1.1831235 -1.127531,0 -1.9437181,-0.8153051 -1.9437181,-1.9415391 v -1.941413 c 0,-1.604031 1.3097601,-2.912372 2.9156381,-2.912372 z" />
</svg>
