<?xml version="1.0" encoding="UTF-8" standalone="no"?>
<!-- Uploaded to: SVG Repo, www.svgrepo.com, Generator: SVG Repo Mixer Tools -->

<svg
   fill="#000000"
   width="485"
   height="800"
   viewBox="0 0 30.3125 50"
   version="1.1"
   id="svg1"
   xmlns="http://www.w3.org/2000/svg"
   xmlns:svg="http://www.w3.org/2000/svg">
  
  <g
     id="path1"
     style="opacity:1">
    <g
       id="path3"
       style="opacity:1">
      
      <path
         style="baseline-shift:baseline;display:inline;overflow:visible;opacity:0.6;vector-effect:none;fill:#808080;fill-opacity:1;stroke-width:0.995131;stroke-linecap:round;enable-background:accumulate;stop-color:#000000;stop-opacity:1"
         d="m 12.504883,0.58984375 c -1.695484,0 -3.0811014,1.39689145 -3.0811014,3.10742185 v 1.9414063 c 0,1.1314663 0.8184834,1.9214498 1.8935334,2.0410156 -0.01835,0.2302712 -0.07533,0.4314135 -0.193416,0.5761719 -0.128873,0.1579847 -0.316997,0.2662387 -0.57831,0.3144531 l -0.0077,0.00195 C 5.9261132,9.5922437 2.6871369,13.618149 2.6871369,18.349609 v 1.970703 c 0,1.291046 0.8107629,2.37522 1.9244793,2.845704 v 13.513671 c -1.1136303,0.470365 -1.9244794,1.552704 -1.9244793,2.84375 v 4.945313 c -10e-8,2.783311 2.2465071,5.048828 5.0055804,5.048828 H 23.09242 c 2.759074,0 5.003646,-2.265564 5.003646,-5.048828 v -4.945313 c 0,-0.671621 -0.190771,-1.533793 -0.528023,-2.298828 -0.337097,-0.764686 -0.81662,-1.445413 -1.464152,-1.677734 l -0.0039,-0.002 -0.02707,-0.0078 0.09867,-0.581997 0.01741,-11.154297 -0.01741,-0.49414 v -0.138672 c 1.115126,-0.469893 1.924479,-1.555701 1.924479,-2.847657 v -1.970703 c 0,-4.731345 -3.234861,-8.749956 -7.879727,-9.7773434 l -0.0077,-0.00195 C 19.748115,8.4863931 19.527237,8.149194 19.487165,7.671875 20.54985,7.5425204 21.359422,6.7615527 21.359422,5.6386719 V 3.6972656 c 0,-1.7104531 -1.383683,-3.10742185 -3.079167,-3.10742185 z m 0,0.38867188 h 5.775372 c 1.485137,-10e-9 2.694271,1.22107577 2.694271,2.71874997 v 1.9414063 c 0,1.0327148 -0.708718,1.7460937 -1.732999,1.7460937 h -0.191481 v 0.1953125 c 0,0.6964764 0.42253,1.2506066 1.086993,1.3730469 l 0.002,0.00195 c 4.472493,0.9921741 7.572197,4.844981 7.572197,9.394531 v 1.970703 c 0,1.182926 -0.753236,2.203706 -1.796826,2.578125 l -0.04835,0.01758 -0.06196,1.265627 -0.01741,10.384765 -0.02498,1.239911 c 0.467066,0.172788 1.139765,0.865383 1.452383,1.57454 0.314829,0.714174 0.497077,1.548393 0.497076,2.142578 v 4.945313 c 0,2.571151 -2.071561,4.5502 -4.61875,4.658203 -5.079391,0.21537 -10.20954,0.227712 -15.3997017,0 C 5.1456916,49.015203 3.0739668,47.039899 3.0739669,44.468748 v -4.945313 c 0,-1.182924 0.753133,-2.201713 1.7968254,-2.576171 l 0.127654,-0.04687 V 22.945312 l -0.127654,-0.04687 C 3.8272038,22.524018 3.0739668,21.503236 3.0739669,20.320312 v -1.970703 c -10e-8,-4.549438 3.1033827,-8.4100923 7.5412511,-9.3945309 l 0.0039,-0.00195 c 0.691342,-0.1297024 1.11601,-0.67752 1.116011,-1.37305 V 7.3847656 h -0.193415 c -1.024281,0 -1.7310644,-0.7132603 -1.7310644,-1.7460937 V 3.6972656 c 0,-1.4976742 1.2091334,-2.71874998 2.6942714,-2.71874997 z M 9.6171966,5.6386719 c 0,0.5384891 0.2050224,0.990615 0.5202864,1.3320312 C 9.8123433,6.6395778 9.6171966,6.1805418 9.6171966,5.6386719 Z m 9.6378704,1.9355468 0.002,0.046875 c -4.8e-4,-0.016064 -0.01354,-0.02472 -0.01354,-0.041016 0.0049,-4.3e-6 0.0067,-0.00582 0.01161,-0.00586 z m -7.724996,0.00195 c 0.0046,2.76e-5 0.007,0.00391 0.01161,0.00391 0,0.016335 -0.01306,0.024922 -0.01354,0.041016 z m 7.775283,0.203125 c 0.03253,0.222134 0.081,0.4379439 0.20502,0.5957031 -0.127002,-0.1555005 -0.171431,-0.3729996 -0.20502,-0.5956999 z m -7.860386,0.097656 c -0.04088,0.173336 -0.0597,0.3606325 -0.164403,0.4882813 0.10283,-0.1303233 0.126212,-0.3139757 0.164403,-0.4882813 z M 25.978172,23.082031 v 0.0293 h -0.07737 z"
         id="path5" />
    </g>
  </g>
</svg>
