<?xml version="1.0" encoding="UTF-8" standalone="no"?>
<!-- Uploaded to: SVG Repo, www.svgrepo.com, Generator: SVG Repo Mixer Tools -->

<svg
   fill="#ffffff"
   width="485"
   height="800"
   viewBox="0 0 30.3125 50"
   version="1.1"
   id="svg1"
   xmlns="http://www.w3.org/2000/svg"
   xmlns:svg="http://www.w3.org/2000/svg">
  <defs
     id="defs1" />
  <g
     id="path1"
     style="opacity:1">
    <g
       id="path3"
       style="opacity:1">
      <path
         style="baseline-shift:baseline;display:none;overflow:visible;vector-effect:none;fill:#ffffff;stroke-linecap:round;enable-background:accumulate;stop-color:#000000;stop-opacity:1;fill-opacity:1"
         d="m 12.476563,0.6875 c -1.658618,0 -3.0136724,1.3528771 -3.0136724,3.0097656 v 1.9414063 c 0,1.1283287 0.8236204,1.9293678 1.9296874,1.9921875 -0.02078,0.5520085 -0.312823,0.934034 -0.876953,1.0371094 h -0.002 -0.002 C 5.8980545,9.6784388 2.6601563,13.663469 2.6601563,18.349609 v 1.970703 c 0,1.277857 0.8157913,2.364823 1.9433593,2.802735 V 36.722656 C 3.4759532,37.160562 2.6601562,38.24558 2.6601563,39.523437 v 4.945313 c -1e-7,2.72987 2.2242035,4.951172 4.9570312,4.951172 H 23.167969 c 2.732829,0 4.955078,-2.221302 4.955078,-4.951172 v -4.945313 c 0,-0.652476 -0.190456,-1.507366 -0.525391,-2.259765 -0.334934,-0.752399 -0.811742,-1.408223 -1.421875,-1.625 l -0.01367,-0.0039 L 24.304687,35.5625 7.9238281,35.193359 7.125,34.857422 H 26.179687 L 26.197266,23.896484 7.9785156,23.519531 7.1679687,23.208984 H 26.179687 V 23.125 c 1.128948,-0.437215 1.94336,-1.525842 1.94336,-2.804688 v -1.970703 c 0,-4.686087 -3.233435,-8.6636735 -7.88086,-9.6816402 h -0.002 -0.002 C 19.709995,8.5726461 19.413663,8.1831895 19.392578,7.6308594 20.497615,7.5671397 21.320312,6.7663225 21.320312,5.6386719 V 3.6972656 c 0,-1.6568885 -1.3531,-3.0097656 -3.011718,-3.0097656 z m 0,0.19335938 h 5.832031 c 1.553139,-10e-9 2.818359,1.26523282 2.818359,2.81640622 v 1.9414063 c 0,1.0793215 -0.766933,1.84375 -1.847656,1.84375 h -0.0957 v 0.097656 c 0,0.6586334 0.390056,1.1637629 1.019531,1.2773438 4.561658,1.0000402 7.726562,4.8959903 7.726562,9.4921873 v 1.970703 c 0,1.225012 -0.786044,2.281634 -1.878906,2.669922 l -0.06445,0.02344 H 6.6445312 l -0.033203,0.189453 1.3300781,0.509766 18.0624997,0.373046 -0.01758,10.578125 H 6.6445312 l -0.037109,0.185547 1.2753906,0.53711 16.4160152,0.36914 1.816406,0.07031 c 0.519454,0.186984 0.981901,0.790514 1.304688,1.515625 0.323676,0.727108 0.509766,1.567577 0.509765,2.18164 v 4.945313 c 0,2.624484 -2.134027,4.755859 -4.761718,4.755859 H 7.6171875 c -2.6276893,0 -4.7617188,-2.131375 -4.7617187,-4.755859 v -4.945313 c 0,-1.225011 0.7860389,-2.279676 1.8789062,-2.667968 l 0.064453,-0.02344 V 23.013672 L 4.734375,22.990234 C 3.641514,22.601946 2.8554687,21.545323 2.8554688,20.320312 v -1.970703 c -1e-7,-4.596142 3.1682191,-8.4998121 7.6953122,-9.4921871 0.660583,-0.1206989 1.050781,-0.6191028 1.050782,-1.2773438 v -0.097656 h -0.09766 c -1.080723,0 -1.8457029,-0.7644286 -1.8457029,-1.84375 V 3.6972656 c 0,-1.5511734 1.2652209,-2.81640623 2.8183599,-2.81640622 z"
         id="path4" />
      <path
         style="baseline-shift:baseline;display:inline;overflow:visible;opacity:1.0;vector-effect:none;fill:#ffffff;fill-opacity:1.0;stroke-width:0.995131;stroke-linecap:round;enable-background:accumulate;stop-color:#000000;stop-opacity:1"
         d="m 12.504883,0.58984375 c -1.695484,0 -3.0811014,1.39689145 -3.0811014,3.10742185 v 1.9414063 c 0,1.1314663 0.8184834,1.9214498 1.8935334,2.0410156 -0.01835,0.2302712 -0.07533,0.4314135 -0.193416,0.5761719 -0.128873,0.1579847 -0.316997,0.2662387 -0.57831,0.3144531 l -0.0077,0.00195 C 5.9261132,9.5922437 2.6871369,13.618149 2.6871369,18.349609 v 1.970703 c 0,1.291046 0.8107629,2.37522 1.9244793,2.845704 v 13.513671 c -1.1136303,0.470365 -1.9244794,1.552704 -1.9244793,2.84375 v 4.945313 c -10e-8,2.783311 2.2465071,5.048828 5.0055804,5.048828 H 23.09242 c 2.759074,0 5.003646,-2.265564 5.003646,-5.048828 v -4.945313 c 0,-0.671621 -0.190771,-1.533793 -0.528023,-2.298828 -0.337097,-0.764686 -0.81662,-1.445413 -1.464152,-1.677734 l -0.0039,-0.002 -0.02707,-0.0078 0.09867,-0.581997 0.01741,-11.154297 -0.01741,-0.49414 v -0.138672 c 1.115126,-0.469893 1.924479,-1.555701 1.924479,-2.847657 v -1.970703 c 0,-4.731345 -3.234861,-8.749956 -7.879727,-9.7773434 l -0.0077,-0.00195 C 19.748115,8.4863931 19.527237,8.149194 19.487165,7.671875 20.54985,7.5425204 21.359422,6.7615527 21.359422,5.6386719 V 3.6972656 c 0,-1.7104531 -1.383683,-3.10742185 -3.079167,-3.10742185 z m 0,0.38867188 h 5.775372 c 1.485137,-10e-9 2.694271,1.22107577 2.694271,2.71874997 v 1.9414063 c 0,1.0327148 -0.708718,1.7460937 -1.732999,1.7460937 h -0.191481 v 0.1953125 c 0,0.6964764 0.42253,1.2506066 1.086993,1.3730469 l 0.002,0.00195 c 4.472493,0.9921741 7.572197,4.844981 7.572197,9.394531 v 1.970703 c 0,1.182926 -0.753236,2.203706 -1.796826,2.578125 l -0.04835,0.01758 -0.06196,1.265627 -0.01741,10.384765 -0.02498,1.239911 c 0.467066,0.172788 1.139765,0.865383 1.452383,1.57454 0.314829,0.714174 0.497077,1.548393 0.497076,2.142578 v 4.945313 c 0,2.571151 -2.071561,4.5502 -4.61875,4.658203 -5.079391,0.21537 -10.20954,0.227712 -15.3997017,0 C 5.1456916,49.015203 3.0739668,47.039899 3.0739669,44.468748 v -4.945313 c 0,-1.182924 0.753133,-2.201713 1.7968254,-2.576171 l 0.127654,-0.04687 V 22.945312 l -0.127654,-0.04687 C 3.8272038,22.524018 3.0739668,21.503236 3.0739669,20.320312 v -1.970703 c -10e-8,-4.549438 3.1033827,-8.4100923 7.5412511,-9.3945309 l 0.0039,-0.00195 c 0.691342,-0.1297024 1.11601,-0.67752 1.116011,-1.37305 V 7.3847656 h -0.193415 c -1.024281,0 -1.7310644,-0.7132603 -1.7310644,-1.7460937 V 3.6972656 c 0,-1.4976742 1.2091334,-2.71874998 2.6942714,-2.71874997 z M 9.6171966,5.6386719 c 0,0.5384891 0.2050224,0.990615 0.5202864,1.3320312 C 9.8123433,6.6395778 9.6171966,6.1805418 9.6171966,5.6386719 Z m 9.6378704,1.9355468 0.002,0.046875 c -4.8e-4,-0.016064 -0.01354,-0.02472 -0.01354,-0.041016 0.0049,-4.3e-6 0.0067,-0.00582 0.01161,-0.00586 z m -7.724996,0.00195 c 0.0046,2.76e-5 0.007,0.00391 0.01161,0.00391 0,0.016335 -0.01306,0.024922 -0.01354,0.041016 z m 7.775283,0.203125 c 0.03253,0.222134 0.081,0.4379439 0.20502,0.5957031 -0.127002,-0.1555005 -0.171431,-0.3729996 -0.20502,-0.5956999 z m -7.860386,0.097656 c -0.04088,0.173336 -0.0597,0.3606325 -0.164403,0.4882813 0.10283,-0.1303233 0.126212,-0.3139757 0.164403,-0.4882813 z M 25.978172,23.082031 v 0.0293 h -0.07737 z"
         id="path5" />
    </g>
  </g>
</svg>
