<?xml version="1.0" encoding="UTF-8" standalone="no"?>
<!-- Uploaded to: SVG Repo, www.svgrepo.com, Generator: SVG Repo Mixer Tools -->

<svg
   fill="#000000"
   width="485"
   height="800"
   viewBox="0 0 30.3125 50"
   version="1.1"
   id="svg1"
   xmlns="http://www.w3.org/2000/svg"
   xmlns:svg="http://www.w3.org/2000/svg">
  
  <g
     id="path1"
     style="opacity:1">
    <path
       style="baseline-shift:baseline;display:inline;overflow:visible;fill:#808080;enable-background:accumulate;stop-color:#000000;stop-opacity:1;stroke-width:0.99992126;stroke-dasharray:none;fill-opacity:1"
       d="m 12.476563,0.6875 c -1.658618,0 -3.0136724,1.3528771 -3.0136724,3.0097656 v 1.9414063 c 0,1.1283287 0.8236204,1.9293678 1.9296874,1.9921875 -0.02078,0.5520085 -0.312823,0.934034 -0.876953,1.0371094 h -0.002 -0.002 C 5.8980545,9.6784388 2.6601563,13.663469 2.6601563,18.349609 v 1.970703 c 0,1.277857 0.8157913,2.364823 1.9433593,2.802735 V 36.722656 C 3.4759532,37.160562 2.6601562,38.24558 2.6601563,39.523437 v 4.945313 c -1e-7,2.72987 2.2242035,4.951172 4.9570312,4.951172 H 23.167969 c 2.732829,0 4.955078,-2.221302 4.955078,-4.951172 v -4.945313 c 0,-0.652476 -0.190456,-1.507366 -0.525391,-2.259765 -0.334934,-0.752399 -0.811742,-1.408223 -1.421875,-1.625 l -0.01367,-0.0039 L 24.304687,35.5625 7.9238281,35.193359 7.125,34.857422 H 26.179687 L 26.197266,23.896484 7.9785156,23.519531 7.1679687,23.208984 H 26.179687 V 23.125 c 1.128948,-0.437215 1.94336,-1.525842 1.94336,-2.804688 v -1.970703 c 0,-4.686087 -3.233435,-8.6636735 -7.88086,-9.6816402 h -0.002 -0.002 C 19.709995,8.5726461 19.413663,8.1831895 19.392578,7.6308594 20.497615,7.5671397 21.320312,6.7663225 21.320312,5.6386719 V 3.6972656 c 0,-1.6568885 -1.3531,-3.0097656 -3.011718,-3.0097656 z m 0,0.19335938 h 5.832031 c 1.553139,-10e-9 2.818359,1.26523282 2.818359,2.81640622 v 1.9414063 c 0,1.0793215 -0.766933,1.84375 -1.847656,1.84375 h -0.0957 v 0.097656 c 0,0.6586334 0.390056,1.1637629 1.019531,1.2773438 4.561658,1.0000402 7.726562,4.8959903 7.726562,9.4921873 v 1.970703 c 0,1.225012 -0.786044,2.281634 -1.878906,2.669922 l -0.06445,0.02344 H 6.6445312 l -0.033203,0.189453 1.3300781,0.509766 18.0624997,0.373046 -0.01758,10.578125 H 6.6445312 l -0.037109,0.185547 1.2753906,0.53711 16.4160152,0.36914 1.816406,0.07031 c 0.519454,0.186984 0.981901,0.790514 1.304688,1.515625 0.323676,0.727108 0.509766,1.567577 0.509765,2.18164 v 4.945313 c 0,2.624484 -2.134027,4.755859 -4.761718,4.755859 H 7.6171875 c -2.6276893,0 -4.7617188,-2.131375 -4.7617187,-4.755859 v -4.945313 c 0,-1.225011 0.7860389,-2.279676 1.8789062,-2.667968 l 0.064453,-0.02344 V 23.013672 L 4.734375,22.990234 C 3.641514,22.601946 2.8554687,21.545323 2.8554688,20.320312 v -1.970703 c -1e-7,-4.596142 3.1682191,-8.4998121 7.6953122,-9.4921871 0.660583,-0.1206989 1.050781,-0.6191028 1.050782,-1.2773438 v -0.097656 h -0.09766 c -1.080723,0 -1.8457029,-0.7644286 -1.8457029,-1.84375 V 3.6972656 c 0,-1.5511734 1.2652209,-2.81640623 2.8183599,-2.81640622 z"
       id="path3" />
  </g>
</svg>
