<?xml version="1.0" encoding="UTF-8" standalone="no"?>
<svg
   width="24"
   height="24"
   viewBox="0 0 24 24"
   fill="#ffffff"
   version="1.1"
   id="svg1"
   xmlns="http://www.w3.org/2000/svg"
   xmlns:svg="http://www.w3.org/2000/svg">
  <g
     id="path1"
     style="opacity:1">
    <path
       style="baseline-shift:baseline;display:inline;overflow:visible;vector-effect:none;fill:#ffffff;fill-opacity:1;stroke-linejoin:round;enable-background:accumulate;stop-color:#000000;stop-opacity:1;"
       d="m 14.8283,12.1716 -2.6568,2.6568 c -0.578,0.5781 -0.867,0.8671 -1.0193,1.2347 C 11,16.4306 11,16.8393 11,17.6568 v 2.372 c 0,0.5866 -0.3571,1.1141 -0.9017,1.3319 -1.02601,0.4104 -2.17056,0.4104 -3.19656,0 C 6.35713,21.1429 6.00001,20.6154 6.00001,20.0288 V 19.7889 C 6.00001,18.8009 5.1991,18 4.21114,18 H 3.97121 c -0.58657,0 -1.11405,-0.3571 -1.33189,-0.9017 -0.4104,-1.026 -0.4104,-2.1706 0,-3.1966 C 2.85716,13.3571 3.38464,13 3.97121,13 H 6.34313 C 7.16064,13 7.5694,13 7.93695,12.8478 8.3045,12.6955 8.59353,12.4065 9.17159,11.8284 L 11.8284,9.17151 c 0.578,-0.57805 0.8671,-0.86707 1.0193,-1.2346 0.1522,-0.36752 0.1522,-0.77625 0.1522,-1.59372 L 13,3.9712 c 0,-0.58657 0.3571,-1.11403 0.9017,-1.33188 1.026,-0.4104 2.1706,-0.41039 3.1966,1e-5 0.5446,0.21784 0.9017,0.74529 0.9018,1.33185 v 0.23993 c 0,0.98793 0.8009,1.78879 1.7888,1.78884 l 0.2399,10e-6 c 0.5866,3e-5 1.114,0.35716 1.3319,0.90176 0.4104,1.02599 0.4104,2.17056 0,3.19658 C 21.1428,10.6429 20.6154,11 20.0288,11 h -2.372 c -0.8175,0 -1.2263,0 -1.5938,0.1522 -0.3676,0.1523 -0.6566,0.4413 -1.2347,1.0194 z"
       id="path2" />
    <path
       style="baseline-shift:baseline;display:inline;overflow:visible;vector-effect:none;fill:#ffffff;stroke-linejoin:round;enable-background:accumulate;stop-color:#000000;stop-opacity:1;fill-opacity:1"
       d="m 15.5,1.3320312 c -0.668816,-3e-6 -1.33669,0.1260821 -1.96875,0.3789063 C 12.609807,2.0795316 12,2.9782708 12,3.9707031 V 6.34375 c 0,0.81747 -0.02425,1.0855671 -0.07617,1.2109375 -0.05184,0.1251751 -0.224691,0.3320634 -0.802734,0.9101563 L 8.4648438,11.121094 C 7.8868041,11.699173 7.680212,11.871815 7.5546875,11.923828 7.429274,11.975761 7.16126,12 6.34375,12 H 3.9707031 c -0.9924323,0 -1.8911752,0.609774 -2.2597656,1.53125 -0.5056463,1.264116 -0.5056463,2.673384 0,3.9375 C 2.0795279,18.390226 2.9782708,19 3.9707031,19 H 4.2109375 C 4.6584573,19 5,19.341488 5,19.789062 v 0.240235 c 0,0.992464 0.6096993,1.89122 1.53125,2.259765 1.2641054,0.505643 2.6733883,0.50564 3.9375,0 C 11.3903,21.92051 12,21.021738 12,20.029297 V 17.65625 c 0,-0.8175 0.02426,-1.08559 0.07617,-1.210938 0.05202,-0.125551 0.224714,-0.332035 0.802734,-0.910156 l 2.65625,-2.65625 c 0.5781,-0.5781 0.784605,-0.750717 0.910156,-0.802734 C 16.570601,12.024284 16.83875,12 17.65625,12 h 2.373047 c 0.992441,0 1.891138,-0.607981 2.259765,-1.529297 a 1.0001,1.0001 0 0 0 0,-0.002 c 0.50564,-1.2641222 0.505647,-2.6733968 0,-3.9375 a 1.0001,1.0001 0 0 0 0,-0.00195 C 21.920439,5.6079924 21.021742,5.0000508 20.029297,5 H 19.789062 C 19.341581,4.9999774 19,4.6584109 19,4.2109375 V 3.9707031 C 18.999831,2.9783761 18.390197,2.0795162 17.46875,1.7109375 16.836695,1.4581154 16.168816,1.3320343 15.5,1.3320312 Z m -1.226562,2.2363282 c 0.787879,-0.3151516 1.665235,-0.3151558 2.453124,0 C 16.894316,3.6354607 16.999969,3.7899102 17,3.9707031 V 4.2109375 C 17,5.7393241 18.260744,6.9999226 19.789062,7 h 0.240235 c 0.180755,9.2e-6 0.335167,0.1055419 0.402344,0.2734375 0.315153,0.7878768 0.315161,1.6652072 0,2.453125 C 20.364469,9.8944463 20.210055,10 20.029297,10 H 17.65625 c -0.8175,0 -1.366851,-0.023996 -1.976562,0.228516 -0.609649,0.252582 -0.980494,0.658228 -1.558594,1.236328 l -2.65625,2.65625 c -0.57798,0.578079 -0.983746,0.948945 -1.236328,1.558594 C 9.9760283,16.28934 10,16.83875 10,17.65625 v 2.373047 c 0,0.180758 -0.1057875,0.335296 -0.2734375,0.402344 -0.7879083,0.31516 -1.6652304,0.315157 -2.453125,0 C 7.1057682,20.364586 7,20.210033 7,20.029297 V 19.789062 C 7,18.260637 5.7393377,17 4.2109375,17 H 3.9707031 c -0.1807076,0 -0.3352542,-0.105714 -0.4023437,-0.273438 -0.3151537,-0.787884 -0.3151537,-1.66524 0,-2.453124 C 3.6354489,14.105714 3.7899955,14 3.9707031,14 H 6.34375 c 0.81751,0 1.366876,0.02395 1.9765625,-0.228516 0.6095755,-0.252587 0.9805134,-0.658207 1.5585938,-1.236328 L 12.535156,9.8789063 C 13.113113,9.3008991 13.518921,8.9301974 13.771484,8.3203125 14.023965,7.7106429 14,7.16122 14,6.34375 V 3.9707031 c 0,-0.1807076 0.10568,-0.3352378 0.273438,-0.4023437 z"
       id="path3" />
  </g>
</svg>
