<?xml version="1.0" encoding="UTF-8" standalone="no"?>
<svg
   width="24"
   height="24"
   viewBox="0 0 24 24"
   fill="none"
   version="1.1"
   id="svg2"
   xmlns="http://www.w3.org/2000/svg"
   xmlns:svg="http://www.w3.org/2000/svg">
  <g
     id="path1"
     style="opacity:1">
    <path
       style="baseline-shift:baseline;display:inline;overflow:visible;vector-effect:none;fill:#4ac2a4;fill-opacity:1;stroke-linejoin:round;enable-background:accumulate;stop-color:#000000;stop-opacity:1;opacity:0.4"
       d="m 17.9862,3.66513 0.296,0.03289 C 19.8295,3.86994 21,5.19944 21,6.7562 21,7.54632 20.6861,8.31388 20.1274,8.87258 19.4231,9.57693 19.1173,10.5867 19.3127,11.5634 l 0.1566,0.7832 c 0.3503,1.7516 0.3503,3.5552 0,5.3068 -0.2812,1.4062 -1.4187,2.4822 -2.8383,2.685 l -0.3075,0.044 c -2.8678,0.4096 -5.7792,0.4096 -8.64695,0 l -0.3075,-0.044 c -1.41967,-0.2028 -2.55713,-1.2788 -2.83838,-2.685 -0.35031,-1.7516 -0.35031,-3.5552 0,-5.3068 L 4.68731,11.5634 C 4.88266,10.5867 4.57693,9.57693 3.87258,8.87258 3.31388,8.31388 3,7.54632 3,6.7562 3,5.19944 4.17054,3.86994 5.71778,3.69802 L 6.01381,3.66513 c 3.97855,-0.44206 7.99379,-0.44206 11.97239,0 z"
       id="path3" />
    <path
       id="path4"
       style="baseline-shift:baseline;display:inline;overflow:visible;vector-effect:none;fill:#4ac2a4;stroke-linejoin:round;enable-background:accumulate;stop-color:#000000;stop-opacity:1;fill-opacity:1"
       d="M 12 2.3339844 C 9.9646792 2.3339844 7.9302687 2.4467676 5.9042969 2.671875 L 5.6074219 2.7050781 C 3.5528003 2.9333754 2 4.6978275 2 6.7558594 C 2 7.8108168 2.4159188 8.8299813 3.1660156 9.5800781 C 3.6347671 10.04883 3.8370307 10.717223 3.7070312 11.367188 L 3.5507812 12.150391 C 3.174583 14.031435 3.1745831 15.968565 3.5507812 17.849609 C 3.9143636 19.667457 5.391561 21.06521 7.2265625 21.328125 L 7.5351562 21.373047 C 10.496691 21.796042 13.503262 21.796041 16.464844 21.373047 L 16.771484 21.328125 C 18.607273 21.065869 20.085572 19.668102 20.449219 17.849609 C 20.825405 15.968568 20.825405 14.031432 20.449219 12.150391 L 20.292969 11.367188 C 20.16295 10.717291 20.365244 10.048852 20.833984 9.5800781 C 21.584073 8.8299897 22 7.8108337 22 6.7558594 C 22 4.6978446 20.447245 2.9333715 18.392578 2.7050781 L 18.095703 2.671875 C 16.069707 2.4467677 14.035321 2.3339844 12 2.3339844 z M 12 4.3339844 C 13.961587 4.3339844 15.922396 4.4412504 17.875 4.6582031 L 18.171875 4.6914062 C 19.211808 4.806953 20 5.7003541 20 6.7558594 C 20 7.2811251 19.787233 7.798704 19.419922 8.1660156 C 18.480062 9.1059418 18.07125 10.456261 18.332031 11.759766 L 18.488281 12.542969 C 18.812695 14.165128 18.812695 15.834872 18.488281 17.457031 C 18.289528 18.450939 17.493646 19.204312 16.490234 19.347656 L 16.181641 19.392578 C 13.407622 19.788784 10.592325 19.788783 7.8183594 19.392578 L 7.5097656 19.347656 C 6.5062714 19.204307 5.710516 18.450982 5.5117188 17.457031 C 5.187297 15.834876 5.187297 14.165124 5.5117188 12.542969 L 5.6679688 11.759766 C 5.9286693 10.456329 5.5200266 9.1059641 4.5800781 8.1660156 C 4.2127749 7.7987124 4 7.281142 4 6.7558594 C 4 5.7003712 4.7882666 4.8069492 5.828125 4.6914062 L 6.125 4.6582031 C 8.0775782 4.4412505 10.038413 4.3339844 12 4.3339844 z M 12 9.6386719 C 11.899165 9.6386719 11.79833 9.655114 11.701172 9.6875 C 10.751004 10.004222 10.004222 10.751004 9.6875 11.701172 C 9.622728 11.895488 9.622728 12.104512 9.6875 12.298828 C 10.004222 13.248996 10.751004 13.995778 11.701172 14.3125 C 11.895488 14.37727 12.104512 14.37727 12.298828 14.3125 C 13.248996 13.995778 13.995778 13.248996 14.3125 12.298828 C 14.37727 12.104512 14.37727 11.895488 14.3125 11.701172 C 13.995778 10.751004 13.248996 10.004222 12.298828 9.6875 C 12.20167 9.655114 12.100835 9.6386719 12 9.6386719 z M 12 10.654297 C 12.632288 10.873495 13.126505 11.367712 13.345703 12 C 13.126505 12.632288 12.632288 13.126505 12 13.345703 C 11.367712 13.126505 10.873495 12.632288 10.654297 12 C 10.873495 11.367712 11.367712 10.873495 12 10.654297 z " />
  </g>
</svg>
