<?xml version="1.0" encoding="UTF-8" standalone="no"?>
<svg
   width="24"
   height="24"
   viewBox="0 0 24 24"
   fill="none"
   version="1.1"
   id="svg2"
   xmlns="http://www.w3.org/2000/svg"
   xmlns:svg="http://www.w3.org/2000/svg">
  <defs
     id="defs2" />
  <path
     d="M4 10.22C4 9.43883 4.3103 8.6897 4.86264 8.13736C6.27285 6.72715 7.9548 5.61808 9.80648 4.87741L10.5978 4.5609C11.4979 4.20083 12.5021 4.20083 13.4022 4.5609L14.1935 4.87741C16.0452 5.61808 17.7272 6.72715 19.1374 8.13736C19.6897 8.6897 20 9.43883 20 10.22V17.0131C20 18.7195 18.7294 20.1588 17.0361 20.3705C13.6917 20.7885 10.3083 20.7885 6.96387 20.3705C5.27065 20.1588 4 18.7195 4 17.0131V10.22Z"
     stroke="#111214"
     stroke-width="2"
     stroke-linejoin="round"
     id="path3"
     style="fill:#4a80f0;fill-opacity:1;stroke:none;opacity:0.4" />
  <path
     id="path1"
     style="baseline-shift:baseline;display:inline;overflow:visible;vector-effect:none;fill:#4a80f0;stroke-linejoin:round;enable-background:accumulate;stop-color:#000000;stop-opacity:1;opacity:1;fill-opacity:1"
     d="M 12 3.2910156 C 11.397751 3.2910156 10.795682 3.4051455 10.226562 3.6328125 L 9.4355469 3.9492188 C 7.4581385 4.7401799 5.6622111 5.9237264 4.15625 7.4296875 C 3.4166463 8.1692912 3 9.1747168 3 10.220703 L 3 17.013672 C 3 19.216497 4.6540769 21.089999 6.8398438 21.363281 C 10.26663 21.791574 13.733399 21.791575 17.160156 21.363281 C 19.345986 21.090004 21 19.216478 21 17.013672 L 21 10.220703 C 21 9.1747168 20.583297 8.1692884 19.84375 7.4296875 C 18.337789 5.9237157 16.541877 4.7401776 14.564453 3.9492188 L 13.773438 3.6328125 C 13.204316 3.4051455 12.602249 3.2910156 12 3.2910156 z M 12 5.2910156 C 12.350135 5.2910156 12.70027 5.3578313 13.03125 5.4902344 L 13.822266 5.8066406 C 15.548242 6.4970217 17.115249 7.5293018 18.429688 8.84375 C 18.79474 9.2088291 19 9.7043497 19 10.220703 L 19 17.013672 C 19 18.223666 18.112879 19.228783 16.912109 19.378906 C 16.608383 19.416868 16.304325 19.45153 16 19.482422 L 16 16.324219 C 16 15.10654 15.215537 14.017911 14.060547 13.632812 C 13.392148 13.410032 12.695602 13.298828 12 13.298828 C 11.304398 13.298828 10.607852 13.410032 9.9394531 13.632812 C 8.7844208 14.017905 8 15.106573 8 16.324219 L 8 19.482422 C 7.6956748 19.45153 7.3916179 19.416867 7.0878906 19.378906 C 5.8872176 19.228788 5 18.223647 5 17.013672 L 5 10.220703 C 5 9.7043497 5.2052362 9.2088263 5.5703125 8.84375 C 6.8847714 7.5292911 8.4517832 6.4970194 10.177734 5.8066406 L 10.96875 5.4902344 C 11.29973 5.3578313 11.649865 5.2910156 12 5.2910156 z M 12 15.296875 C 12.482216 15.296875 12.964433 15.374877 13.427734 15.529297 C 13.773544 15.644597 14 15.959698 14 16.324219 L 14 19.634766 C 12.667521 19.702136 11.332484 19.702136 10 19.634766 L 10 16.324219 C 10 15.959664 10.226418 15.644604 10.572266 15.529297 C 11.035567 15.374877 11.517784 15.296875 12 15.296875 z " />
</svg>
