<?xml version="1.0" encoding="UTF-8" standalone="no"?>
<svg
   width="24"
   height="24"
   viewBox="0 0 24 24"
   fill="none"
   version="1.1"
   id="svg7"
   xmlns="http://www.w3.org/2000/svg"
   xmlns:svg="http://www.w3.org/2000/svg">
  <path
     d="M3.57043 7.50351C3.84062 6.55784 4.54322 5.79629 5.46411 5.45096C9.6781 3.87071 14.3219 3.87071 18.5359 5.45096C19.4568 5.79629 20.1594 6.55783 20.4296 7.50351L20.6714 8.34998C21.5398 11.3892 21.5398 14.6108 20.6714 17.65L20.6298 17.7958C20.2401 19.1597 19.1521 20.212 17.776 20.556C13.9837 21.5041 10.0163 21.5041 6.224 20.556C4.84785 20.212 3.75991 19.1597 3.37022 17.7958L3.32858 17.65C2.46023 14.6108 2.46023 11.3892 3.32858 8.34998L3.57043 7.50351Z"
     stroke="#111214"
     stroke-width="2"
     stroke-linejoin="round"
     id="path8"
     style="fill:#ffffff;fill-opacity:1;stroke:none;opacity:0.4" />
  <path
     id="path10"
     style="baseline-shift:baseline;display:inline;overflow:visible;vector-effect:none;fill:#ffffff;stroke-linejoin:round;enable-background:accumulate;stop-color:#000000;stroke:none;fill-opacity:1"
     d="M 7 2 L 7 3.9121094 C 6.3638926 4.0797413 5.7341639 4.2808403 5.1132812 4.5136719 C 3.8963954 4.9699991 2.9664081 5.9788933 2.609375 7.2285156 L 2.3671875 8.0761719 C 1.4475556 11.294878 1.4475547 14.70514 2.3671875 17.923828 L 2.4082031 18.070312 C 2.8956329 19.776298 4.2610929 21.095105 5.9824219 21.525391 C 9.933931 22.513294 14.066069 22.513294 18.017578 21.525391 C 19.738856 21.095102 21.104349 19.77632 21.591797 18.070312 L 21.632812 17.923828 C 22.552502 14.705132 22.5525 11.294886 21.632812 8.0761719 L 21.390625 7.2285156 C 21.033582 5.9788901 20.103608 4.9699956 18.886719 4.5136719 C 18.265835 4.2808406 17.636107 4.0797412 17 3.9121094 L 17 2 L 15 2 L 15 3.4960938 C 14.006028 3.3424241 13.003042 3.265625 12 3.265625 C 10.996959 3.265625 9.9939721 3.3424243 9 3.4960938 L 9 2 L 7 2 z M 12 5.265625 C 14.095426 5.265625 16.191624 5.6389978 18.185547 6.3867188 C 18.810457 6.6210552 19.285393 7.1356093 19.46875 7.7773438 L 19.708984 8.625 C 19.791854 8.9150282 19.86558 9.2068137 19.931641 9.5 L 4.0683594 9.5 C 4.1344167 9.2068139 4.2081502 8.9150285 4.2910156 8.625 L 4.53125 7.7773438 C 4.7145969 7.1356261 5.189559 6.6210515 5.8144531 6.3867188 C 7.8083706 5.6389979 9.9045745 5.265625 12 5.265625 z M 3.875 10.5 L 20.125 10.5 C 20.488585 12.786937 20.349467 15.133459 19.708984 17.375 L 19.667969 17.521484 C 19.376017 18.543278 18.564125 19.328226 17.533203 19.585938 C 13.900112 20.494235 10.099888 20.494235 6.4667969 19.585938 C 5.4358309 19.328224 4.6239815 18.543299 4.3320312 17.521484 L 4.2910156 17.375 C 3.6505681 15.133452 3.5114343 12.786938 3.875 10.5 z M 7.5 13.197266 C 7.243035 13.197266 6.98607 13.25695 6.75 13.375 C 6.58772 13.4561 6.45614 13.5877 6.375 13.75 C 6.13893 14.2221 6.13893 14.7779 6.375 15.25 C 6.45614 15.4123 6.58772 15.5439 6.75 15.625 C 7.22214 15.8611 7.77786 15.8611 8.25 15.625 C 8.41228 15.5439 8.54386 15.4123 8.625 15.25 C 8.86107 14.7779 8.86107 14.2221 8.625 13.75 C 8.54386 13.5877 8.41228 13.4561 8.25 13.375 C 8.01393 13.25695 7.756965 13.197266 7.5 13.197266 z M 12 13.197266 C 11.743025 13.197266 11.48605 13.25695 11.25 13.375 C 11.0877 13.4561 10.9561 13.5877 10.875 13.75 C 10.6389 14.2221 10.6389 14.7779 10.875 15.25 C 10.9561 15.4123 11.0877 15.5439 11.25 15.625 C 11.7221 15.8611 12.2779 15.8611 12.75 15.625 C 12.9123 15.5439 13.0439 15.4123 13.125 15.25 C 13.3611 14.7779 13.3611 14.2221 13.125 13.75 C 13.0439 13.5877 12.9123 13.4561 12.75 13.375 C 12.51395 13.25695 12.256975 13.197266 12 13.197266 z M 16.5 13.197266 C 16.243025 13.197266 15.98605 13.25695 15.75 13.375 C 15.5877 13.4561 15.4561 13.5877 15.375 13.75 C 15.1389 14.2221 15.1389 14.7779 15.375 15.25 C 15.4561 15.4123 15.5877 15.5439 15.75 15.625 C 16.2221 15.8611 16.7779 15.8611 17.25 15.625 C 17.4123 15.5439 17.5439 15.4123 17.625 15.25 C 17.8611 14.7779 17.8611 14.2221 17.625 13.75 C 17.5439 13.5877 17.4123 13.4561 17.25 13.375 C 17.01395 13.25695 16.756975 13.197266 16.5 13.197266 z " />
</svg>
