<?xml version="1.0" encoding="UTF-8" standalone="no"?>
<svg
   width="24"
   height="24"
   viewBox="0 0 24 24"
   fill="none"
   version="1.1"
   id="svg3"
   xmlns="http://www.w3.org/2000/svg"
   xmlns:svg="http://www.w3.org/2000/svg">
  <defs
     id="defs3" />
  <path
     id="path1"
     style="baseline-shift:baseline;display:inline;overflow:visible;vector-effect:none;fill:#ffffff;stroke-linejoin:round;enable-background:accumulate;stop-color:#000000;stop-opacity:1;opacity:1;stroke:none;fill-opacity:1"
     d="M 12 2.734375 C 10.211034 2.734375 8.4223494 2.9822901 6.6855469 3.4785156 C 5.1357305 3.9213257 3.9213165 5.1357183 3.4785156 6.6855469 C 2.4860637 10.159134 2.4860637 13.840866 3.4785156 17.314453 C 3.9213197 18.864255 5.1357484 20.078641 6.6855469 20.521484 C 10.159156 21.513968 13.840862 21.513969 17.314453 20.521484 C 18.864226 20.078638 20.078638 18.864226 20.521484 17.314453 C 21.51386 13.840876 21.51386 10.159124 20.521484 6.6855469 C 20.078641 5.135747 18.864244 3.9213293 17.314453 3.4785156 C 15.57766 2.9822897 13.788966 2.734375 12 2.734375 z M 12 4.734375 C 13.603989 4.734375 15.208319 4.9573998 16.765625 5.4023438 C 17.653634 5.6560701 18.3439 6.3463149 18.597656 7.234375 C 19.487481 10.348998 19.487481 13.651002 18.597656 16.765625 C 18.343903 17.653652 17.653652 18.343903 16.765625 18.597656 C 13.651016 19.487571 10.349005 19.487572 7.234375 18.597656 C 6.3463135 18.343899 5.6560597 17.653623 5.4023438 16.765625 C 4.5124557 13.651012 4.5124558 10.348988 5.4023438 7.234375 C 5.6560629 6.3463435 6.3463313 5.6560736 7.234375 5.4023438 C 8.7916924 4.9573993 10.396011 4.734375 12 4.734375 z M 11 7 L 11 11 L 7 11 L 7 13 L 11 13 L 11 17 L 13 17 L 13 13 L 17 13 L 17 11 L 13 11 L 13 7 L 11 7 z " />
</svg>
