<?xml version="1.0" encoding="UTF-8" standalone="no"?>
<svg
   width="24"
   height="24"
   viewBox="0 0 24 24"
   fill="none"
   version="1.1"
   id="svg3"
   xmlns="http://www.w3.org/2000/svg"
   xmlns:svg="http://www.w3.org/2000/svg">
  <defs
     id="defs3" />
  <path
     d="m 2.84699,13.459 c 0.09797,-0.2939 0.30868,-0.5368 0.58579,-0.6754 0.98659,-0.4933 2.14785,-0.4933 3.13444,0 0.27711,0.1386 0.48782,0.3815 0.58579,0.6754 l 0.13988,0.4197 c 0.45899,1.377 0.45899,2.8656 0,4.2426 L 7.15301,18.541 c -0.09797,0.2939 -0.30868,0.5368 -0.58579,0.6754 -0.98659,0.4933 -2.14785,0.4933 -3.13444,0 C 3.15567,19.0778 2.94496,18.8349 2.84699,18.541 L 2.70711,18.1213 c -0.45899,-1.377 -0.45899,-2.8656 0,-4.2426 z"
     stroke="#111214"
     stroke-width="2"
     stroke-linejoin="round"
     id="path1"
     style="stroke:none;fill:#999999;fill-opacity:1;opacity:0.4" />
  <path
     d="M9.92285 4.57862C9.97111 4.21671 10.1955 3.90223 10.5221 3.73894C11.4525 3.27377 12.5475 3.27377 13.4779 3.73894C13.8045 3.90223 14.0289 4.21671 14.0771 4.57862L14.1658 5.24333C14.7195 9.39607 14.7195 13.6039 14.1658 17.7567L14.0771 18.4214C14.0289 18.7833 13.8045 19.0978 13.4779 19.2611C12.5475 19.7262 11.4525 19.7262 10.5221 19.2611C10.1955 19.0978 9.97111 18.7833 9.92285 18.4214L9.83422 17.7567C9.28052 13.6039 9.28052 9.39607 9.83422 5.24333L9.92285 4.57862Z"
     stroke="#111214"
     stroke-width="2"
     stroke-linejoin="round"
     id="path2"
     style="stroke:none;fill:#999999;fill-opacity:1;opacity:0.4" />
  <path
     d="M16.8832 10.5258C16.9571 10.1931 17.177 9.91152 17.4818 9.75912C18.4375 9.28124 19.5625 9.28124 20.5182 9.75912C20.823 9.91152 21.0429 10.1931 21.1168 10.5258L21.1369 10.6162C21.7054 13.1742 21.7054 15.8258 21.1369 18.3838L21.1168 18.4742C21.0429 18.8069 20.823 19.0885 20.5182 19.2409C19.5625 19.7188 18.4375 19.7188 17.4818 19.2409C17.177 19.0885 16.9571 18.8069 16.8832 18.4742L16.8631 18.3838C16.2946 15.8258 16.2946 13.1742 16.8631 10.6162L16.8832 10.5258Z"
     stroke="#111214"
     stroke-width="2"
     stroke-linejoin="round"
     id="path3"
     style="stroke:none;fill:#999999;fill-opacity:1;opacity:0.4" />
  <path
     id="path4"
     style="baseline-shift:baseline;display:inline;overflow:visible;vector-effect:none;fill:#999999;stroke-linejoin:round;enable-background:accumulate;stop-color:#000000;stop-opacity:1;opacity:1;fill-opacity:1"
     d="M 12 2.390625 C 11.34023 2.390625 10.67977 2.5409938 10.074219 2.84375 C 9.4521427 3.1547689 9.023549 3.7580291 8.9316406 4.4472656 L 8.84375 5.1113281 C 8.420339 8.2869025 8.3146377 11.4942 8.5253906 14.685547 C 8.4597824 14.306511 8.3649631 13.930835 8.2421875 13.5625 L 8.1015625 13.142578 C 7.9198323 12.597406 7.5274521 12.145645 7.0136719 11.888672 C 6.3800056 11.571836 5.6903855 11.414062 5 11.414062 C 4.3096145 11.414062 3.6199944 11.571836 2.9863281 11.888672 C 2.4725479 12.145645 2.0801677 12.597406 1.8984375 13.142578 L 1.7578125 13.5625 C 1.2304537 15.144611 1.2304537 16.855389 1.7578125 18.4375 L 1.8984375 18.857422 C 2.0801677 19.402594 2.4725479 19.854355 2.9863281 20.111328 C 4.2536607 20.745001 5.7463393 20.745001 7.0136719 20.111328 C 7.5274521 19.854355 7.9198323 19.402594 8.1015625 18.857422 L 8.2421875 18.4375 C 8.4972066 17.672426 8.6283429 16.878182 8.6367188 16.082031 C 8.6941661 16.685462 8.7635507 17.28717 8.84375 17.888672 L 8.9316406 18.552734 C 9.0235506 19.241963 9.4521343 19.845208 10.074219 20.15625 C 11.285305 20.761663 12.714695 20.761663 13.925781 20.15625 C 14.547858 19.845212 14.976546 19.242095 15.068359 18.552734 L 15.15625 17.888672 C 15.279886 16.961392 15.375748 16.031063 15.445312 15.099609 C 15.482608 16.274696 15.630235 17.447497 15.886719 18.601562 L 15.90625 18.691406 C 16.045304 19.317432 16.461715 19.848045 17.035156 20.134766 C 18.271634 20.753069 19.728366 20.753069 20.964844 20.134766 C 21.538285 19.848045 21.954696 19.317432 22.09375 18.691406 L 22.113281 18.601562 C 22.713533 15.900693 22.713533 13.099307 22.113281 10.398438 L 22.09375 10.308594 C 21.954694 9.6825592 21.538254 9.1519393 20.964844 8.8652344 C 20.346607 8.5560967 19.6736 8.4003906 19 8.4003906 C 18.3264 8.4003906 17.653393 8.5560967 17.035156 8.8652344 C 16.461746 9.1519393 16.045306 9.6825592 15.90625 10.308594 L 15.886719 10.398438 C 15.753041 10.999929 15.648356 11.605602 15.574219 12.214844 C 15.609351 9.8422603 15.470548 7.468556 15.15625 5.1113281 L 15.068359 4.4472656 C 14.976548 3.7578963 14.54785 3.1547652 13.925781 2.84375 C 13.32023 2.5409938 12.65977 2.390625 12 2.390625 z M 12 4.3886719 C 12.353201 4.3886719 12.706401 4.4703987 13.03125 4.6328125 C 13.06238 4.6483775 13.081348 4.6764865 13.085938 4.7109375 L 13.173828 5.375 C 13.715832 9.4400212 13.715833 13.559916 13.173828 17.625 L 13.085938 18.289062 C 13.081338 18.323503 13.06237 18.351617 13.03125 18.367188 C 12.381536 18.691976 11.618464 18.691976 10.96875 18.367188 C 10.93763 18.351627 10.918673 18.323643 10.914062 18.289062 L 10.826172 17.625 C 10.284167 13.559916 10.284168 9.4400212 10.826172 5.375 L 10.914062 4.7109375 C 10.918662 4.6763545 10.93762 4.6483735 10.96875 4.6328125 C 11.293598 4.4703987 11.646799 4.3886719 12 4.3886719 z M 19 10.400391 C 19.36675 10.400391 19.73285 10.485551 20.070312 10.654297 C 20.106503 10.672397 20.131885 10.702818 20.140625 10.742188 L 20.160156 10.833984 C 20.696904 13.249115 20.696904 15.750885 20.160156 18.166016 L 20.140625 18.257812 C 20.131925 18.297183 20.106472 18.327623 20.070312 18.345703 C 19.395391 18.6832 18.60461 18.6832 17.929688 18.345703 C 17.893528 18.327623 17.868115 18.297183 17.859375 18.257812 L 17.839844 18.166016 C 17.303096 15.750885 17.303096 13.249115 17.839844 10.833984 L 17.859375 10.742188 C 17.868075 10.702818 17.893498 10.672387 17.929688 10.654297 C 18.267151 10.485555 18.63325 10.400391 19 10.400391 z M 5 13.414062 C 5.3835395 13.414062 5.7662169 13.501273 6.1191406 13.677734 C 6.1595806 13.697964 6.1908691 13.732761 6.2050781 13.775391 L 6.34375 14.195312 C 6.7343712 15.367202 6.7343712 16.632798 6.34375 17.804688 L 6.2050781 18.224609 C 6.1908681 18.267239 6.1595796 18.302036 6.1191406 18.322266 C 5.4132932 18.675193 4.5867068 18.675193 3.8808594 18.322266 C 3.8404194 18.302036 3.8091309 18.267239 3.7949219 18.224609 L 3.65625 17.804688 C 3.2656288 16.632798 3.2656288 15.367201 3.65625 14.195312 L 3.7949219 13.775391 C 3.8091319 13.732761 3.8404204 13.697964 3.8808594 13.677734 C 4.2337836 13.501274 4.6164605 13.414062 5 13.414062 z " />
</svg>
