<?xml version="1.0" encoding="UTF-8" standalone="no"?>
<svg
   width="24"
   height="24"
   viewBox="0 0 24 24"
   fill="none"
   version="1.1"
   id="svg2"
   xmlns="http://www.w3.org/2000/svg"
   xmlns:svg="http://www.w3.org/2000/svg">
  <defs
     id="defs2" />
  <path
     d="M4 18.167C4 18.2304 4 18.2621 4.00076 18.2897C4.02747 19.2561 4.74159 20.065 5.6972 20.2114C5.72451 20.2156 5.75596 20.2195 5.81887 20.2274C6.04594 20.2557 6.15948 20.2699 6.27269 20.2835C10.0772 20.7408 13.9228 20.7408 17.7273 20.2835C17.8405 20.2699 17.9541 20.2557 18.1811 20.2274C18.244 20.2195 18.2755 20.2156 18.3028 20.2114C19.2584 20.065 19.9725 19.2561 19.9992 18.2897C20 18.2621 20 18.2304 20 18.167V17.3057C20 15.9188 19.1397 14.6774 17.8411 14.1904C14.0751 12.7782 9.92491 12.7782 6.15888 14.1904C4.8603 14.6774 4 15.9188 4 17.3057V18.167Z"
     stroke="#111214"
     stroke-width="2"
     stroke-linejoin="round"
     id="path1"
     style="fill:#4A80F0;fill-opacity:1;stroke:none;opacity:0.4" />
  <path
     d="M8.57143 5.28571C8.84122 4.47634 9.47634 3.84122 10.2857 3.57143C11.3985 3.20051 12.6015 3.20051 13.7143 3.57143C14.5237 3.84122 15.1588 4.47634 15.4286 5.28571C15.7995 6.39848 15.7995 7.60152 15.4286 8.71429C15.1588 9.52366 14.5237 10.1588 13.7143 10.4286C12.6015 10.7995 11.3985 10.7995 10.2857 10.4286C9.47634 10.1588 8.84122 9.52366 8.57143 8.71429C8.20051 7.60152 8.20051 6.39848 8.57143 5.28571Z"
     stroke="#111214"
     stroke-width="2"
     stroke-linejoin="round"
     id="path2"
     style="fill:#4A80F0;fill-opacity:1;stroke:none;opacity:0.4" />
  <path
     id="path3"
     style="baseline-shift:baseline;display:inline;overflow:visible;vector-effect:none;fill:#4A80F0;stroke-linejoin:round;enable-background:accumulate;stop-color:#000000;stop-opacity:1;opacity:1;fill-opacity:1"
     d="M 12 2.2929688 C 11.314219 2.2929688 10.627705 2.4034029 9.96875 2.6230469 C 8.8616131 2.9920971 7.9920956 3.8616038 7.6230469 4.96875 C 7.1837518 6.2866472 7.1837518 7.7133528 7.6230469 9.03125 C 7.992094 10.138391 8.8616079 11.007888 9.96875 11.376953 C 11.286653 11.816215 12.713347 11.816215 14.03125 11.376953 C 15.138434 11.007892 16.0079 10.138369 16.376953 9.03125 C 16.816222 7.7133606 16.816222 6.2866394 16.376953 4.96875 C 16.007898 3.8616267 15.138429 2.9920927 14.03125 2.6230469 C 13.372295 2.4034029 12.685781 2.2929688 12 2.2929688 z M 12 4.2929688 C 12.472296 4.2929688 12.944592 4.3682552 13.398438 4.5195312 C 13.910058 4.6900654 14.309924 5.0899458 14.480469 5.6015625 C 14.783 6.5092131 14.783 7.4907869 14.480469 8.3984375 C 14.309922 8.9100589 13.910053 9.30993 13.398438 9.4804688 C 12.49074 9.7830071 11.509258 9.7830071 10.601562 9.4804688 C 10.089984 9.3099343 9.6900641 8.910036 9.5195312 8.3984375 C 9.2169863 7.4907947 9.2169863 6.5092053 9.5195312 5.6015625 C 9.6900624 5.0899687 10.089979 4.6900611 10.601562 4.5195312 C 11.055407 4.3682552 11.527704 4.2929688 12 4.2929688 z M 12 12.130859 C 9.9019311 12.130859 7.8046841 12.505405 5.8085938 13.253906 C 4.1228275 13.886111 3 15.506204 3 17.306641 L 3 18.167969 C 3 18.231369 3.0006163 18.267749 3.0019531 18.316406 C 3.0418371 19.75947 4.1180084 20.980615 5.5449219 21.199219 C 5.5943099 21.206819 5.6309599 21.21091 5.6933594 21.21875 A 1.0001 1.0001 0 0 0 5.6953125 21.21875 C 5.9222408 21.24703 6.0378572 21.261401 6.1542969 21.275391 C 10.038081 21.742219 13.961928 21.742219 17.845703 21.275391 C 17.962085 21.261411 18.077796 21.24704 18.304688 21.21875 A 1.0001 1.0001 0 0 0 18.306641 21.21875 C 18.368961 21.21095 18.405471 21.206849 18.455078 21.199219 C 19.881353 20.98071 20.957274 19.760576 20.998047 18.318359 L 20.998047 18.316406 C 20.999388 18.267616 21 18.230546 21 18.167969 L 21 17.306641 C 21 15.506204 19.877191 13.886108 18.191406 13.253906 C 16.195329 12.505404 14.098069 12.130859 12 12.130859 z M 12 14.130859 C 13.860034 14.130859 15.720311 14.463255 17.490234 15.126953 C 18.40165 15.468751 19 16.333277 19 17.306641 L 19 18.167969 C 19 18.231369 19.000157 18.254326 19 18.259766 A 1.0001 1.0001 0 0 0 19 18.261719 C 18.98647 18.751463 18.634681 19.148462 18.150391 19.222656 C 18.145391 19.223424 18.120121 19.226355 18.056641 19.234375 C 17.829533 19.262685 17.71744 19.277796 17.607422 19.291016 C 13.882197 19.738787 10.117814 19.738787 6.3925781 19.291016 C 6.2825978 19.277806 6.170571 19.262695 5.9433594 19.234375 C 5.8799384 19.226375 5.8548414 19.223466 5.8496094 19.222656 C 5.3653028 19.14841 5.0135357 18.751455 5 18.261719 C 4.9998199 18.255219 5 18.231369 5 18.167969 L 5 17.306641 C 5 16.333277 5.5983718 15.468749 6.5097656 15.126953 C 8.2797053 14.463255 10.139966 14.130859 12 14.130859 z " />
</svg>
