<?xml version="1.0" encoding="UTF-8" standalone="no"?>
<svg
   width="24"
   height="24"
   viewBox="0 0 24 24"
   fill="none"
   version="1.1"
   id="svg7"
   xmlns="http://www.w3.org/2000/svg"
   xmlns:svg="http://www.w3.org/2000/svg">
  <path
     style="baseline-shift:baseline;display:inline;overflow:visible;vector-effect:none;fill:#ffffff;stroke-linejoin:round;enable-background:accumulate;stop-color:#000000;stroke:none;fill-opacity:1;opacity:0.4"
     d="m 5,7 h 14 v 2.69819 c 0,2.86431 -0.2033,5.72491 -0.6084,8.56041 l -0.0867,0.6072 c -0.1816,1.2708 -1.1652,2.2776 -2.4314,2.4886 -2.5647,0.4275 -5.1823,0.4275 -7.74698,0 -1.2662,-0.211 -2.24987,-1.2178 -2.4314,-2.4886 L 5.60837,18.2586 C 5.2033,15.4231 5,12.5625 5,9.69819 Z"
     id="path8" />
  <path
     style="baseline-shift:baseline;display:inline;overflow:visible;vector-effect:none;fill:#ffffff;stroke-linejoin:round;enable-background:accumulate;stop-color:#000000;stroke:none;fill-opacity:1;opacity:0.4"
     d="M 3.58357,3.83285 C 3.84373,3.31253 4.34672,2.95666 4.92397,2.8845 L 6.39834,2.70021 c 3.71996,-0.465 7.48336,-0.465 11.20336,0 L 19.076,2.8845 c 0.5773,0.07216 1.0803,0.42803 1.3404,0.94835 l 0.0354,0.07069 c 0.3451,0.69024 0.3451,1.50268 0,2.19292 C 20.1749,6.65021 19.6089,7 18.9898,7 H 5.01018 C 4.39108,7 3.82511,6.65021 3.54823,6.09646 3.20311,5.40622 3.20311,4.59378 3.54823,3.90354 Z"
     id="path10" />
  <path
     id="path9"
     style="baseline-shift:baseline;display:inline;overflow:visible;vector-effect:none;fill:#ffffff;stroke-linejoin:round;enable-background:accumulate;stop-color:#000000;fill-opacity:1"
     d="M 12 1.3515625 C 10.087729 1.3515625 8.1746021 1.4693831 6.2734375 1.7070312 L 4.8007812 1.8925781 C 3.8929327 2.0060651 3.0986179 2.5664362 2.6894531 3.3847656 L 2.6542969 3.4570312 C 2.1688067 4.4280116 2.1688067 5.5719884 2.6542969 6.5429688 C 2.9419674 7.1182995 3.4253682 7.5574217 4 7.796875 L 4 9.6972656 C 4 12.608894 4.2073791 15.51805 4.6191406 18.400391 L 4.7050781 19.007812 C 4.9476666 20.706052 6.2707693 22.057868 7.9628906 22.339844 C 10.636422 22.785488 13.363562 22.785487 16.037109 22.339844 C 17.729237 22.057867 19.05225 20.705979 19.294922 19.007812 L 19.380859 18.400391 C 19.79265 15.518043 20 12.608894 20 9.6972656 L 20 7.796875 C 20.574621 7.557421 21.058013 7.1182972 21.345703 6.5429688 C 21.831162 5.5719949 21.831162 4.428005 21.345703 3.4570312 A 1.0001 1.0001 0 0 0 21.345703 3.4550781 L 21.310547 3.3847656 C 20.901437 2.5663444 20.107095 2.0060587 19.199219 1.8925781 L 17.726562 1.7070312 C 15.825379 1.4693833 13.912271 1.3515625 12 1.3515625 z M 11.5 3.3535156 L 11.5 6 L 8.5 6 L 8.5 3.4902344 C 9.4985745 3.4106811 10.49925 3.3649151 11.5 3.3535156 z M 12.5 3.3535156 C 13.500751 3.3649151 14.501423 3.4106806 15.5 3.4902344 L 15.5 6 L 12.5 6 L 12.5 3.3535156 z M 7.5 3.5820312 L 7.5 6 L 5.0097656 6 C 4.7673307 6 4.5517938 5.8653024 4.4433594 5.6484375 C 4.2386096 5.2389379 4.2386096 4.7610621 4.4433594 4.3515625 L 4.4785156 4.2792969 C 4.5896711 4.0569867 4.8021766 3.9077862 5.0488281 3.8769531 L 6.5214844 3.6933594 C 6.8473107 3.6526306 7.1735064 3.6155042 7.5 3.5820312 z M 16.5 3.5820312 C 16.826493 3.615504 17.152688 3.6526309 17.478516 3.6933594 L 18.951172 3.8769531 C 19.197896 3.9077921 19.410399 4.0570744 19.521484 4.2792969 A 1.0001 1.0001 0 0 0 19.521484 4.28125 L 19.558594 4.3515625 L 19.556641 4.3515625 C 19.761382 4.7610686 19.761382 5.2389314 19.556641 5.6484375 C 19.449712 5.8623715 19.238422 5.996414 19 6 L 16.5 6 L 16.5 3.5820312 z M 6 8 L 18 8 L 18 9.6972656 C 18 12.514258 17.800751 15.328535 17.402344 18.117188 L 17.314453 18.724609 C 17.193925 19.568043 16.549257 20.227165 15.708984 20.367188 C 13.253133 20.776544 10.746846 20.776544 8.2910156 20.367188 C 7.4507359 20.227163 6.8060184 19.567969 6.6855469 18.724609 L 6.5976562 18.117188 C 6.1992778 15.328528 6 12.514258 6 9.6972656 L 6 8 z M 8 11.5 L 8 12.5 L 16 12.5 L 16 11.5 L 8 11.5 z M 8 15.5 L 8 16.5 L 14 16.5 L 14 15.5 L 8 15.5 z " />
</svg>
