<?xml version="1.0" encoding="UTF-8" standalone="no"?>
<svg
   width="24"
   height="24"
   viewBox="0 0 24 24"
   fill="#ffffff"
   version="1.1"
   id="svg3"
   xmlns="http://www.w3.org/2000/svg"
   xmlns:svg="http://www.w3.org/2000/svg">
  <rect
     style="fill:#ffffff;stroke:none;stroke-width:0.5;stroke-linecap:round;stroke-dasharray:3, 2;stroke-dashoffset:3.25"
     id="rect4"
     width="13.113983"
     height="14.467685"
     x="5.2455935"
     y="6.2326674" />
  <path
     id="path1"
     style="baseline-shift:baseline;display:inline;overflow:visible;vector-effect:none;fill:#ffffff;stroke-linejoin:round;enable-background:accumulate;stop-color:#000000;stop-opacity:1;opacity:1;fill-opacity:1"
     d="M 12 1.3339844 C 11.235519 1.3339844 10.470898 1.4563113 9.7363281 1.7011719 C 8.7029564 2.0456127 8 3.0201348 8 4.109375 L 8 5 L 2 5 L 2 7 L 4 7 L 4 9.0527344 C 4 12.394352 4.236402 15.731016 4.7089844 19.039062 C 4.9496596 20.723789 6.2684199 22.058995 7.9414062 22.337891 C 10.616642 22.783715 13.383339 22.783714 16.058594 22.337891 C 17.731573 22.058994 19.05034 20.72379 19.291016 19.039062 C 19.763609 15.73101 20 12.394348 20 9.0527344 L 20 7 L 22 7 L 22 5 L 16 5 L 16 4.109375 C 16 3.0201549 15.297065 2.0456087 14.263672 1.7011719 C 13.529102 1.4563113 12.764481 1.3339844 12 1.3339844 z M 12 3.3339844 C 12.550819 3.3339844 13.101429 3.4211763 13.630859 3.5976562 C 13.854867 3.6723193 14 3.8732951 14 4.109375 L 14 5 L 10 5 L 10 4.109375 C 10 3.8733152 10.145152 3.6723154 10.369141 3.5976562 C 10.898571 3.4211767 11.449181 3.3339844 12 3.3339844 z M 6 7 L 9 7 L 15 7 L 18 7 L 18 9.0527344 C 18 12.29972 17.769754 15.541511 17.310547 18.755859 C 17.193622 19.574332 16.55169 20.228331 15.730469 20.365234 C 13.276323 20.774211 10.723655 20.77421 8.2695312 20.365234 C 7.4482976 20.22833 6.8063779 19.574332 6.6894531 18.755859 C 6.2302555 15.541506 6 12.299716 6 9.0527344 L 6 7 z " />
</svg>
