<?xml version="1.0" encoding="UTF-8" standalone="no"?>
<svg
   width="24"
   height="24"
   viewBox="0 0 24 24"
   fill="none"
   version="1.1"
   id="svg4"
   xmlns="http://www.w3.org/2000/svg"
   xmlns:svg="http://www.w3.org/2000/svg">
  <path
     d="M18 15V4.38426C18 3.50441 16.9362 3.06378 16.3141 3.68593C14.8324 5.1676 14 7.17719 14 9.27259V11.6125C14 12.91 14 13.5587 14.2896 14.0366C14.4566 14.3122 14.6878 14.5434 14.9634 14.7104C15.4413 15 16.09 15 17.3875 15H18Z"
     fill="#D9D9D9"
     id="path3"
     style="stroke:none;fill:#ffffff;fill-opacity:1;opacity:0.4" />
  <path
     id="path1"
     style="baseline-shift:baseline;display:inline;overflow:visible;vector-effect:none;fill:#ffffff;stroke-linejoin:round;enable-background:accumulate;stop-color:#000000;stop-opacity:1;opacity:1;fill-opacity:1"
     d="M 4 2 L 4 9.6757812 C 4 10.893408 4.7844367 11.982089 5.9394531 12.367188 C 6.2930975 12.485062 6.6544901 12.571445 7.0195312 12.626953 L 7.0195312 22 L 8.9804688 22 L 8.9804688 12.626953 C 9.34551 12.571445 9.7069024 12.485062 10.060547 12.367188 C 11.215521 11.982082 12 10.893442 12 9.6757812 L 12 2 L 10 2 L 10 9.6757812 C 10 10.040241 9.7735198 10.355408 9.4277344 10.470703 C 9.2803609 10.519825 9.1310689 10.560255 8.9804688 10.59375 L 8.9804688 2.7890625 L 7.0195312 2.7890625 L 7.0195312 10.59375 C 6.8689311 10.560255 6.7196391 10.519825 6.5722656 10.470703 C 6.2264421 10.355401 6 10.040274 6 9.6757812 L 6 2 L 4 2 z M 16.945312 2.4023438 C 16.849422 2.405753 16.753701 2.4164869 16.658203 2.4335938 C 16.276212 2.5020212 15.905438 2.6804755 15.607422 2.9785156 C 13.938451 4.6474524 13 6.9132034 13 9.2734375 L 13 11.613281 C 13 12.910781 12.93613 13.733765 13.433594 14.554688 C 13.684129 14.968144 14.031855 15.315871 14.445312 15.566406 C 15.169937 16.005518 15.947051 15.997678 17 15.992188 L 17 22 L 19 22 L 19 4.3847656 C 19 3.5418174 18.453587 2.8305546 17.773438 2.5488281 C 17.518382 2.4431807 17.232985 2.392116 16.945312 2.4023438 z M 17 4.4238281 L 17 13.970703 C 16.216751 13.951743 15.58991 13.920603 15.482422 13.855469 C 15.34468 13.772004 15.227996 13.65532 15.144531 13.517578 C 15.062797 13.382699 15 12.910781 15 11.613281 L 15 9.2734375 C 15 7.4557631 15.722633 5.7155326 17 4.4238281 z " />
</svg>
