<?xml version="1.0" encoding="UTF-8" standalone="no"?>
<svg
   width="24"
   height="24"
   viewBox="0 0 24 24"
   fill="none"
   version="1.1"
   id="svg2"
   xmlns="http://www.w3.org/2000/svg"
   xmlns:svg="http://www.w3.org/2000/svg">
  <path
     style="baseline-shift:baseline;display:inline;overflow:visible;vector-effect:none;fill:#999999;stroke-linejoin:round;enable-background:accumulate;stop-color:#000000;fill-opacity:1;opacity:0.4"
     d="M 4,18.1083 V 16.0877 C 4,14.7299 4.42425,13.406 5.21346,12.3012 l 0.6656,-0.9319 C 7.94544,8.47639 10.4764,5.94544 13.3693,3.87906 l 0.9038,-0.64553 c 1.0624,-0.75889 2.4763,-0.85882 3.6441,-0.27493 1.3386,0.66928 2.4446,1.76498 3.1139,3.10353 0.5926,1.18522 0.4558,2.60485 -0.3521,3.65517 l -0.5569,0.724 c -2.066,2.6857 -4.5792,4.9954 -7.4294,6.8277 l -1.5372,0.9882 c -0.7623,0.49 -1.61655,0.8196 -2.51052,0.9686 L 5.86593,19.689 C 5.22227,19.7963 4.90044,19.8499 4.64979,19.7562 4.43218,19.6748 4.24968,19.5203 4.13365,19.319 4,19.0871 4,18.7609 4,18.1083 Z"
     id="path3" />
  <path
     id="path4"
     style="baseline-shift:baseline;display:inline;overflow:visible;vector-effect:none;fill:#999999;stroke-linejoin:round;enable-background:accumulate;stop-color:#000000;stroke:none;fill-opacity:1"
     d="M 16.589844 1.5898438 C 16.386809 1.5777809 16.182895 1.5787098 15.980469 1.59375 C 15.170764 1.653911 14.37645 1.9305838 13.691406 2.4199219 L 12.789062 3.0644531 A 1.0001 1.0001 0 0 0 12.787109 3.0644531 C 9.8044682 5.1949678 7.1949697 7.8044093 5.0644531 10.787109 A 1.0001 1.0001 0 0 0 5.0644531 10.789062 L 4.4003906 11.720703 C 3.490072 12.994995 3 14.521788 3 16.087891 L 3 18.107422 C 3 18.760022 2.931348 19.234956 3.2675781 19.818359 C 3.4996131 20.220916 3.8641522 20.530763 4.2988281 20.693359 C 4.9296241 20.929169 5.3875403 20.783091 6.03125 20.675781 L 8.8085938 20.212891 C 9.8365587 20.041557 10.818742 19.661108 11.695312 19.097656 L 13.234375 18.109375 C 16.181198 16.214959 18.778039 13.827509 20.914062 11.050781 L 21.470703 10.326172 C 22.510839 8.973933 22.688751 7.141199 21.925781 5.6152344 C 21.157028 4.0777846 19.897242 2.8304341 18.365234 2.0644531 C 17.803711 1.7836962 17.198948 1.6260323 16.589844 1.5898438 z M 16.472656 3.5878906 C 16.815216 3.608217 17.156377 3.6963548 17.470703 3.8535156 C 18.615895 4.4260947 19.566872 5.3701154 20.136719 6.5097656 C 20.558949 7.354241 20.462383 8.3590226 19.886719 9.1074219 L 19.335938 9.8242188 L 14.099609 4.5878906 L 14.853516 4.046875 C 15.230872 3.7773231 15.676065 3.623398 16.130859 3.5898438 C 16.244558 3.5814552 16.35847 3.5811152 16.472656 3.5878906 z M 12.488281 5.8046875 L 18.056641 11.373047 C 16.330815 13.317444 14.344556 15.018434 12.152344 16.427734 L 10.615234 17.416016 C 9.9672042 17.832564 9.2404438 18.113568 8.4804688 18.240234 L 5.7011719 18.703125 C 5.3449485 18.762509 5.1295395 18.777598 5.0292969 18.787109 C 5.02218 18.686491 5 18.469546 5 18.107422 L 5 16.087891 C 5 14.938393 5.3592424 13.818074 6.0273438 12.882812 L 6.6933594 11.951172 C 8.3392286 9.6469724 10.289287 7.5797028 12.488281 5.8046875 z " />
</svg>
