<?xml version="1.0" encoding="UTF-8" standalone="no"?>
<svg
   width="24"
   height="24"
   viewBox="0 0 24 24"
   fill="#ffffff"
   version="1.1"
   id="svg4"
   xmlns="http://www.w3.org/2000/svg"
   xmlns:svg="http://www.w3.org/2000/svg">
  <g
     id="path4"
     style="display:inline;opacity:1">
    <path
       style="baseline-shift:baseline;display:inline;overflow:visible;vector-effect:none;fill:#ffffff;stroke-linejoin:round;enable-background:accumulate;stop-color:#000000;stop-opacity:1;fill-opacity:1"
       d="M 7.41691,5.57289 C 8.02984,5.49627 8.3363,5.45796 8.64239,5.42567 c 2.23221,-0.23552 4.48301,-0.23552 6.71521,0 0.3061,0.03229 0.6126,0.0706 1.2255,0.14722 l 0.2304,0.0288 c 0.2167,0.02708 0.325,0.04062 0.422,0.05762 1.6004,0.2806 2.872,1.5014 3.2176,3.08902 0.021,0.09619 0.0389,0.20387 0.0748,0.41924 0.0336,0.20143 0.0504,0.30215 0.0658,0.40246 0.2475,1.61057 0.2475,3.24937 0,4.85997 -0.0154,0.1003 -0.0322,0.201 -0.0658,0.4024 -0.0359,0.2154 -0.0538,0.3231 -0.0748,0.4193 -0.3456,1.5876 -1.6172,2.8084 -3.2176,3.089 -0.097,0.017 -0.2053,0.0305 -0.422,0.0576 l -0.2304,0.0288 c -0.6129,0.0766 -0.9194,0.1149 -1.2255,0.1472 -2.2322,0.2355 -4.483,0.2355 -6.71521,0 C 8.3363,18.542 8.02984,18.5037 7.41691,18.4271 L 7.18647,18.3983 C 6.96981,18.3712 6.86149,18.3577 6.76453,18.3407 5.16413,18.0601 3.89248,16.8393 3.54685,15.2517 3.52591,15.1555 3.50797,15.0478 3.47207,14.8324 3.4385,14.631 3.42171,14.5303 3.4063,14.43 3.15883,12.8194 3.15883,11.1806 3.4063,9.57003 3.42171,9.46972 3.4385,9.369 3.47207,9.16757 3.50797,8.9522 3.52591,8.84452 3.54685,8.74833 3.89248,7.16071 5.16413,5.93991 6.76453,5.65931 6.86149,5.64231 6.96981,5.62877 7.18647,5.60169 Z"
       id="path5" />
    <path
       id="path6"
       style="baseline-shift:baseline;display:inline;overflow:visible;vector-effect:none;fill:#ffffff;stroke-linejoin:round;enable-background:accumulate;stop-color:#000000;stop-opacity:1;fill-opacity:1"
       d="M 12 4.25 C 10.844045 4.25 9.6880932 4.3102005 8.5371094 4.4316406 C 8.2182072 4.4652822 7.9058981 4.5034582 7.2929688 4.5800781 L 7.0625 4.609375 C 6.8458362 4.636456 6.7245771 4.6505481 6.5917969 4.6738281 C 4.6060189 5.0219969 3.0206272 6.5354227 2.578125 8.5 L 1 8.5 A 0.5 0.5 0 0 0 0.5 9 A 0.5 0.5 0 0 0 1 9.5 L 2.40625 9.5 C 2.159848 11.157469 2.1598487 12.842506 2.40625 14.5 L 1 14.5 A 0.5 0.5 0 0 0 0.5 15 A 0.5 0.5 0 0 0 1 15.5 L 2.578125 15.5 C 3.0206289 17.46456 4.606019 18.978003 6.5917969 19.326172 C 6.7248399 19.349502 6.8459865 19.363545 7.0625 19.390625 L 7.2929688 19.419922 C 7.9058981 19.496522 8.2182502 19.534712 8.5371094 19.568359 C 10.839071 19.811218 13.160938 19.811218 15.462891 19.568359 C 15.781753 19.534709 16.094125 19.496519 16.707031 19.419922 L 16.9375 19.390625 C 17.154069 19.363545 17.275208 19.349472 17.408203 19.326172 C 19.393985 18.978003 20.979409 17.464554 21.421875 15.5 L 23 15.5 A 0.5 0.5 0 0 0 23.5 15 A 0.5 0.5 0 0 0 23 14.5 L 21.59375 14.5 C 21.840183 12.842496 21.840184 11.157479 21.59375 9.5 L 23 9.5 A 0.5 0.5 0 0 0 23.5 9 A 0.5 0.5 0 0 0 23 8.5 L 21.421875 8.5 C 20.979411 6.5354286 19.393985 5.0219975 17.408203 4.6738281 C 17.275471 4.6505658 17.154219 4.6364573 16.9375 4.609375 L 16.707031 4.5800781 C 16.094125 4.5034571 15.781796 4.4652814 15.462891 4.4316406 C 14.311911 4.3102005 13.155955 4.25 12 4.25 z M 12 6.2480469 C 13.085365 6.2480469 14.170732 6.305842 15.251953 6.4199219 C 15.545248 6.4508609 15.846091 6.4878339 16.458984 6.5644531 L 16.689453 6.59375 C 16.906134 6.620828 17.001232 6.6337942 17.0625 6.6445312 C 18.105437 6.8273906 18.95982 7.5368841 19.337891 8.5 L 4.6621094 8.5 C 5.0401897 7.5368878 5.8945609 6.827391 6.9375 6.6445312 C 6.9986398 6.6338116 7.0938906 6.6208295 7.3105469 6.59375 L 7.5410156 6.5644531 C 8.1539463 6.487833 8.454769 6.4508603 8.7480469 6.4199219 C 9.8292729 6.3058419 10.914635 6.2480469 12 6.2480469 z M 4.4316406 9.5 L 19.568359 9.5 C 19.584556 9.5967145 19.596002 9.6609827 19.605469 9.7226562 C 19.8375 11.232569 19.837501 12.767398 19.605469 14.277344 C 19.596002 14.339003 19.584555 14.403286 19.568359 14.5 L 4.4316406 14.5 C 4.4154531 14.403326 4.4040171 14.339084 4.3945312 14.277344 C 4.1625251 12.767386 4.162526 11.23258 4.3945312 9.7226562 C 4.4040187 9.6609004 4.4154528 9.5966742 4.4316406 9.5 z M 5.25 11.75 L 5.25 12.25 L 8.25 12.25 L 8.25 11.75 L 5.25 11.75 z M 10.25 11.75 L 10.25 12.25 L 13.25 12.25 L 13.25 11.75 L 10.25 11.75 z M 15.25 11.75 L 15.25 12.25 L 18.25 12.25 L 18.25 11.75 L 15.25 11.75 z M 4.6621094 15.5 L 19.337891 15.5 C 18.95982 16.463102 18.105435 17.17261 17.0625 17.355469 C 17.00149 17.366159 16.906285 17.37914 16.689453 17.40625 L 16.458984 17.435547 C 15.846091 17.512147 15.545291 17.549125 15.251953 17.580078 C 13.089506 17.808219 10.910505 17.808219 8.7480469 17.580078 C 8.454726 17.549124 8.1539463 17.512147 7.5410156 17.435547 L 7.3105469 17.40625 C 7.0937403 17.379132 6.998377 17.366142 6.9375 17.355469 C 5.8945633 17.17261 5.0401903 16.463098 4.6621094 15.5 z " />
  </g>
</svg>
