<svg width="20" height="20" viewBox="0 0 20 20" fill="none" xmlns="http://www.w3.org/2000/svg">
<path d="M4.16667 1.66663V8.06283C4.16667 8.72201 4.58847 9.30723 5.21382 9.51568C6.15688 9.83003 7.17645 9.83003 8.11951 9.51568C8.74486 9.30723 9.16667 8.72201 9.16667 8.06283V1.66663" stroke="#7D7969" stroke-width="2" stroke-linejoin="round"/>
<path d="M6.66667 1.66663V18.3333" stroke="#7D7969" stroke-width="2" stroke-linejoin="round"/>
<path d="M15 12.5V3.65351C15 2.9203 14.1135 2.55311 13.5951 3.07156C12.3603 4.30629 11.6667 5.98095 11.6667 7.72712V9.67707C11.6667 10.443 11.6667 10.8259 11.7702 11.1351C11.9695 11.7301 12.4365 12.1972 13.0316 12.3964C13.3407 12.5 13.7236 12.5 14.4896 12.5H15Z" fill="#FFEA82"/>
<path d="M15 18.3333V3.65351C15 2.9203 14.1135 2.55311 13.5951 3.07156C12.3603 4.30629 11.6667 5.98095 11.6667 7.72712V9.67707C11.6667 10.443 11.6667 10.8259 11.7702 11.1351C11.9695 11.7301 12.4365 12.1972 13.0316 12.3964C13.3407 12.5 13.7236 12.5 14.4896 12.5H15" stroke="#7D7969" stroke-width="2" stroke-linejoin="round"/>
</svg>
