<svg width="20" height="20" viewBox="0 0 20 20" fill="none" xmlns="http://www.w3.org/2000/svg">
<path d="M2.69241 4.42272L2.80613 4.08156C3.13449 3.09649 3.94336 2.34745 4.95071 2.09561L5.29108 2.01052C6.18948 1.78592 7.1333 1.82217 8.01182 2.11501C8.73881 2.35734 9.30928 2.92781 9.55161 3.6548L9.57075 3.71222C9.85204 4.55609 9.90824 5.45875 9.73379 6.33099L9.27061 8.64688C9.20283 8.98578 9.03626 9.29703 8.79187 9.54142L8.15763 10.1757L8.15761 10.1757C8.08702 10.2463 8.05172 10.2816 8.01934 10.3172C7.70743 10.6607 7.52465 11.102 7.50232 11.5654C7.5 11.6135 7.5 11.6635 7.5 11.7633V13.631C7.5 14.4485 6.97685 15.1743 6.20126 15.4329C5.42151 15.6928 4.57849 15.6928 3.79873 15.4329L3.72432 15.4081C2.97796 15.1593 2.44436 14.4992 2.35748 13.7173L2.02487 10.7238C1.78888 8.59989 2.01663 6.45005 2.69241 4.42272Z" fill="#FFEA82" stroke="#7D7969" stroke-width="2" stroke-linejoin="round"/>
<path d="M2.5 11.6666L7.5 11.6666" stroke="#7D7969" stroke-width="2" stroke-linejoin="round"/>
<path d="M17.3076 6.92272L17.1939 6.58156C16.8655 5.59649 16.0566 4.84745 15.0493 4.59561L14.7089 4.51052C13.8105 4.28592 12.8667 4.32217 11.9882 4.61501C11.2612 4.85734 10.6907 5.42781 10.4484 6.1548L10.4292 6.21222C10.148 7.05609 10.0918 7.95875 10.2662 8.83099L10.7294 11.1469C10.7972 11.4858 10.9637 11.797 11.2081 12.0414L11.8424 12.6757L11.8424 12.6757C11.913 12.7463 11.9483 12.7816 11.9807 12.8172C12.2926 13.1607 12.4753 13.602 12.4977 14.0654C12.5 14.1135 12.5 14.1635 12.5 14.2633V16.131C12.5 16.9485 13.0231 17.6743 13.7987 17.9329C14.5785 18.1928 15.4215 18.1928 16.2013 17.9329L16.2757 17.9081C17.022 17.6593 17.5556 16.9992 17.6425 16.2173L17.9751 13.2238C18.2111 11.0999 17.9834 8.95005 17.3076 6.92272Z" fill="#FFEA82" stroke="#7D7969" stroke-width="2" stroke-linejoin="round"/>
<path d="M17.5 14.1666L12.5 14.1666" stroke="#7D7969" stroke-width="2" stroke-linejoin="round"/>
</svg>
