<svg width="20" height="20" viewBox="0 0 20 20" fill="none" xmlns="http://www.w3.org/2000/svg">
<path d="M7.5 7.5L11.6667 11.6667" stroke="#7D7969" stroke-width="2" stroke-linejoin="round"/>
<path d="M13.061 17.4092C13.2328 17.4665 13.4215 17.4413 13.5722 17.3408L13.6648 17.2791C15.0963 16.3247 16.3247 15.0963 17.279 13.6648L17.3407 13.5723C17.4412 13.4215 17.4665 13.2329 17.4092 13.061C16.9418 11.6587 15.8414 10.5583 14.439 10.0908C14.2672 10.0335 14.0785 10.0588 13.9278 10.1593L13.8352 10.221C12.4037 11.1754 11.1753 12.4037 10.221 13.8353L10.1593 13.9278C10.0588 14.0785 10.0335 14.2672 10.0908 14.4391C10.5582 15.8414 11.6586 16.9418 13.061 17.4092Z" fill="#FFEA82" stroke="#7D7969" stroke-width="2" stroke-linejoin="round"/>
<path d="M4.50878 9.00292C4.81872 9.10624 5.159 9.06067 5.43084 8.87944L5.58529 8.77648C6.84925 7.93384 7.93384 6.84925 8.77648 5.58529L8.87945 5.43084C9.06067 5.159 9.10624 4.81871 9.00293 4.50877C8.58141 3.24422 7.58912 2.25193 6.32457 1.83041C6.01462 1.7271 5.67434 1.77267 5.4025 1.95389L5.24805 2.05686C3.98409 2.8995 2.8995 3.98409 2.05686 5.24805L1.9539 5.4025C1.77267 5.67434 1.7271 6.01462 1.83041 6.32456C2.25193 7.58911 3.24423 8.58141 4.50878 9.00292Z" fill="#FFEA82" stroke="#7D7969" stroke-width="2" stroke-linejoin="round"/>
<path d="M15.8333 15.8334L16.6667 16.6667" stroke="#7D7969" stroke-width="2" stroke-linejoin="round"/>
<path d="M2.5 2.5L3.33333 3.33333" stroke="#7D7969" stroke-width="2" stroke-linejoin="round"/>
</svg>
