<svg width="20" height="20" viewBox="0 0 20 20" fill="none" xmlns="http://www.w3.org/2000/svg">
<path d="M5.83333 10.8333L6.45833 12.0833C6.59356 12.3538 6.81287 12.5731 7.08333 12.7083C7.87023 13.1017 8.79644 13.1017 9.58333 12.7083L9.6684 12.6658C9.88616 12.5569 10.074 12.3964 10.2155 12.1983L14.1667 6.66663" stroke="#7D7969" stroke-width="2" stroke-linejoin="round"/>
<path d="M3.7 5.8C3.99022 4.78423 4.78423 3.99022 5.8 3.7C8.54507 2.91569 11.4549 2.91569 14.2 3.7C15.2158 3.99022 16.0098 4.78423 16.3 5.8C17.0843 8.54507 17.0843 11.4549 16.3 14.2C16.0098 15.2158 15.2158 16.0098 14.2 16.3C11.4549 17.0843 8.54508 17.0843 5.8 16.3C4.78423 16.0098 3.99022 15.2158 3.7 14.2C2.91569 11.4549 2.91569 8.54507 3.7 5.8Z" stroke="#F7F2E1" stroke-width="2" stroke-linejoin="round"/>
</svg>
