<svg width="20" height="20" viewBox="0 0 20 20" fill="none" xmlns="http://www.w3.org/2000/svg">
<path d="M13.3334 6.66663L6.66675 13.3333" stroke="#F7F2E1" stroke-width="2" stroke-linejoin="round"/>
<path d="M13.3334 13.3334L6.66675 6.66671" stroke="#F7F2E1" stroke-width="2" stroke-linejoin="round"/>
<path d="M3.69991 5.8C3.99013 4.78423 4.78413 3.99022 5.79991 3.7C8.54498 2.91569 11.4548 2.91569 14.1999 3.7C15.2157 3.99022 16.0097 4.78423 16.2999 5.8C17.0842 8.54507 17.0842 11.4549 16.2999 14.2C16.0097 15.2158 15.2157 16.0098 14.1999 16.3C11.4548 17.0843 8.54499 17.0843 5.79991 16.3C4.78413 16.0098 3.99013 15.2158 3.69991 14.2C2.9156 11.4549 2.9156 8.54507 3.69991 5.8Z" stroke="#F7F2E1" stroke-width="2" stroke-linejoin="round"/>
</svg>
